<svg width="24" height="24" viewBox="0 0 24 24" fill="none" xmlns="http://www.w3.org/2000/svg">
<path d="M21.943 9.44063C21.557 9.04453 21.1609 8.62813 21.0086 8.27266C20.8562 7.91719 20.8664 7.38906 20.8562 6.85078C20.8461 5.86563 20.8258 4.73828 20.0437 3.95625C19.2617 3.17422 18.1344 3.15391 17.1492 3.14375C16.6109 3.13359 16.0625 3.12344 15.7273 2.99141C15.3922 2.85938 14.9555 2.44297 14.5594 2.05703C13.8586 1.38672 13.0562 0.625 12 0.625C10.9438 0.625 10.1414 1.38672 9.44063 2.05703C9.04453 2.44297 8.62813 2.83906 8.27266 2.99141C7.91719 3.14375 7.38906 3.13359 6.85078 3.14375C5.86563 3.15391 4.73828 3.17422 3.95625 3.95625C3.17422 4.73828 3.15391 5.86563 3.14375 6.85078C3.13359 7.38906 3.12344 7.9375 2.99141 8.27266C2.85938 8.60781 2.44297 9.04453 2.05703 9.44063C1.38672 10.1414 0.625 10.9438 0.625 12C0.625 13.0562 1.38672 13.8586 2.05703 14.5594C2.44297 14.9555 2.83906 15.3719 2.99141 15.7273C3.14375 16.0828 3.13359 16.6109 3.14375 17.1492C3.15391 18.1344 3.17422 19.2617 3.95625 20.0437C4.73828 20.8258 5.86563 20.8461 6.85078 20.8562C7.38906 20.8664 7.9375 20.8766 8.27266 21.0086C8.60781 21.1406 9.04453 21.557 9.44063 21.943C10.1414 22.6133 10.9438 23.375 12 23.375C13.0562 23.375 13.8586 22.6133 14.5594 21.943C14.9555 21.557 15.3719 21.1609 15.7273 21.0086C16.0828 20.8562 16.6109 20.8664 17.1492 20.8562C18.1344 20.8461 19.2617 20.8258 20.0437 20.0437C20.8258 19.2617 20.8461 18.1344 20.8562 17.1492C20.8664 16.6109 20.8766 16.0625 21.0086 15.7273C21.1406 15.3922 21.557 14.9555 21.943 14.5594C22.6133 13.8586 23.375 13.0562 23.375 12C23.375 10.9438 22.6133 10.1414 21.943 9.44063ZM20.7648 13.432C20.2773 13.9398 19.7797 14.468 19.5055 15.1078C19.2312 15.7477 19.2414 16.4383 19.2312 17.1187C19.2211 17.7992 19.2109 18.5812 18.8961 18.8961C18.5812 19.2109 17.8398 19.2211 17.1187 19.2312C16.3977 19.2414 15.7273 19.2516 15.1078 19.5055C14.4883 19.7594 13.9398 20.2773 13.432 20.7648C12.9242 21.2523 12.4062 21.75 12 21.75C11.5938 21.75 11.0758 21.2523 10.568 20.7648C10.0602 20.2773 9.53203 19.7797 8.89219 19.5055C8.25234 19.2312 7.56172 19.2414 6.88125 19.2312C6.20078 19.2211 5.41875 19.2109 5.10391 18.8961C4.78906 18.5812 4.77891 17.8398 4.76875 17.1187C4.75859 16.3977 4.74844 15.7273 4.49453 15.1078C4.24062 14.4883 3.72266 13.9398 3.23516 13.432C2.74766 12.9242 2.25 12.4062 2.25 12C2.25 11.5938 2.74766 11.0758 3.23516 10.568C3.72266 10.0602 4.22031 9.53203 4.49453 8.89219C4.76875 8.25234 4.75859 7.56172 4.76875 6.88125C4.77891 6.20078 4.78906 5.41875 5.10391 5.10391C5.41875 4.78906 6.16016 4.77891 6.88125 4.76875C7.60234 4.75859 8.27266 4.74844 8.89219 4.49453C9.51172 4.24062 10.0602 3.72266 10.568 3.23516C11.0758 2.74766 11.5938 2.25 12 2.25C12.4062 2.25 12.9242 2.74766 13.432 3.23516C13.9398 3.72266 14.468 4.22031 15.1078 4.49453C15.7477 4.76875 16.4383 4.75859 17.1187 4.76875C17.7992 4.77891 18.5812 4.78906 18.8961 5.10391C19.2109 5.41875 19.2211 6.16016 19.2312 6.88125C19.2414 7.60234 19.2516 8.27266 19.5055 8.89219C19.7594 9.51172 20.2773 10.0602 20.7648 10.568C21.2523 11.0758 21.75 11.5938 21.75 12C21.75 12.4062 21.2523 12.9242 20.7648 13.432ZM11.1875 12.8125V7.125C11.1875 6.90951 11.2731 6.70285 11.4255 6.55048C11.5778 6.3981 11.7845 6.3125 12 6.3125C12.2155 6.3125 12.4222 6.3981 12.5745 6.55048C12.7269 6.70285 12.8125 6.90951 12.8125 7.125V12.8125C12.8125 13.028 12.7269 13.2347 12.5745 13.387C12.4222 13.5394 12.2155 13.625 12 13.625C11.7845 13.625 11.5778 13.5394 11.4255 13.387C11.2731 13.2347 11.1875 13.028 11.1875 12.8125ZM13.2188 16.4688C13.2188 16.7098 13.1473 16.9454 13.0134 17.1459C12.8794 17.3463 12.6891 17.5025 12.4664 17.5947C12.2437 17.687 11.9986 17.7111 11.7622 17.6641C11.5258 17.6171 11.3087 17.501 11.1382 17.3305C10.9678 17.1601 10.8517 16.9429 10.8047 16.7065C10.7576 16.4701 10.7818 16.2251 10.874 16.0024C10.9663 15.7797 11.1225 15.5893 11.3229 15.4554C11.5233 15.3215 11.759 15.25 12 15.25C12.3232 15.25 12.6332 15.3784 12.8618 15.607C13.0903 15.8355 13.2188 16.1455 13.2188 16.4688Z" fill="#F4371D"/>
</svg>
