<svg width="23" height="22" viewBox="0 0 23 22" fill="none" xmlns="http://www.w3.org/2000/svg">
<g id="fi-rr-apps-add" clip-path="url(#clip0_1_2362)">
<path id="Vector" d="M4.35756 0.6H7.03613C7.95681 0.6 8.83978 0.965739 9.4908 1.61676C10.1418 2.26778 10.5076 3.15075 10.5076 4.07143V6.75C10.5076 7.67068 10.1418 8.55365 9.4908 9.20467C8.83978 9.85569 7.95681 10.2214 7.03613 10.2214H4.35756C3.43688 10.2214 2.55391 9.85569 1.90289 9.20467C1.25187 8.55365 0.886133 7.67068 0.886133 6.75V4.07143C0.886133 3.15075 1.25187 2.26778 1.90289 1.61676C2.55391 0.965739 3.43688 0.6 4.35756 0.6ZM8.36953 8.0834C8.72317 7.72976 8.92185 7.25012 8.92185 6.75V4.07143C8.92185 3.57131 8.72317 3.09167 8.36953 2.73803C8.01589 2.38439 7.53626 2.18571 7.03613 2.18571H4.35756C3.85744 2.18571 3.3778 2.38439 3.02416 2.73803C2.67052 3.09167 2.47185 3.57131 2.47185 4.07143V6.75C2.47185 7.25012 2.67052 7.72976 3.02416 8.0834C3.3778 8.43704 3.85744 8.63571 4.35756 8.63571H7.03613C7.53626 8.63571 8.01589 8.43704 8.36953 8.0834Z" fill="#7E7E7E" stroke="white" stroke-width="0.2"/>
<path id="Vector_2" d="M4.35756 12.2072H7.03613C7.95681 12.2072 8.83978 12.5729 9.4908 13.2239C10.1418 13.875 10.5076 14.7579 10.5076 15.6786V18.3572C10.5076 19.2779 10.1418 20.1608 9.4908 20.8119C8.83978 21.4629 7.95681 21.8286 7.03613 21.8286H4.35756C3.43688 21.8286 2.55391 21.4629 1.90289 20.8119C1.25187 20.1608 0.886133 19.2779 0.886133 18.3572V15.6786C0.886133 14.7579 1.25187 13.875 1.90289 13.2239C2.55391 12.5729 3.43688 12.2072 4.35756 12.2072ZM8.36953 19.6906C8.72317 19.3369 8.92185 18.8573 8.92185 18.3572V15.6786C8.92185 15.1785 8.72317 14.6988 8.36953 14.3452C8.01589 13.9916 7.53626 13.7929 7.03613 13.7929H4.35756C3.85744 13.7929 3.3778 13.9916 3.02416 14.3452C2.67052 14.6988 2.47185 15.1785 2.47185 15.6786V18.3572C2.47185 18.8573 2.67052 19.3369 3.02416 19.6906C3.3778 20.0442 3.85744 20.2429 4.35756 20.2429H7.03613C7.53626 20.2429 8.01589 20.0442 8.36953 19.6906Z" fill="#7E7E7E" stroke="white" stroke-width="0.2"/>
<path id="Vector_3" d="M15.965 12.2072H18.6435C19.5642 12.2072 20.4472 12.5729 21.0982 13.2239C21.7492 13.875 22.115 14.7579 22.115 15.6786V18.3572C22.115 19.2779 21.7492 20.1608 21.0982 20.8119C20.4472 21.4629 19.5642 21.8286 18.6435 21.8286H15.965C15.0443 21.8286 14.1613 21.4629 13.5103 20.8119C12.8593 20.1608 12.4936 19.2779 12.4936 18.3572V15.6786C12.4936 14.7579 12.8593 13.875 13.5103 13.2239C14.1613 12.5729 15.0443 12.2072 15.965 12.2072ZM19.9769 19.6906C20.3306 19.3369 20.5293 18.8573 20.5293 18.3572V15.6786C20.5293 15.1785 20.3306 14.6988 19.9769 14.3452C19.6233 13.9916 19.1437 13.7929 18.6435 13.7929H15.965C15.4649 13.7929 14.9852 13.9916 14.6316 14.3452C14.2779 14.6988 14.0793 15.1785 14.0793 15.6786V18.3572C14.0793 18.8573 14.2779 19.3369 14.6316 19.6906C14.9852 20.0442 15.4649 20.2429 15.965 20.2429H18.6435C19.1437 20.2429 19.6233 20.0442 19.9769 19.6906Z" fill="#7E7E7E" stroke="white" stroke-width="0.2"/>
<path id="Vector_4" d="M16.065 6.74996V6.64996H15.965H13.2864C13.0761 6.64996 12.8745 6.56643 12.7258 6.41774C12.5771 6.26905 12.4936 6.06739 12.4936 5.85711C12.4936 5.64683 12.5771 5.44516 12.7258 5.29647C12.8745 5.14778 13.0761 5.06425 13.2864 5.06425H15.965H16.065V4.96425V2.28568C16.065 2.0754 16.1485 1.87373 16.2972 1.72504C16.4459 1.57636 16.6476 1.49282 16.8578 1.49282C17.0681 1.49282 17.2698 1.57636 17.4185 1.72504C17.5672 1.87373 17.6507 2.0754 17.6507 2.28568V4.96425V5.06425H17.7507H20.4293C20.6395 5.06425 20.8412 5.14778 20.9899 5.29647C21.1386 5.44516 21.2221 5.64683 21.2221 5.85711C21.2221 6.06739 21.1386 6.26905 20.9899 6.41774C20.8412 6.56643 20.6395 6.64996 20.4293 6.64996H17.7507H17.6507V6.74996V9.42854C17.6507 9.63881 17.5672 9.84048 17.4185 9.98917C17.2698 10.1379 17.0681 10.2214 16.8578 10.2214C16.6476 10.2214 16.4459 10.1379 16.2972 9.98917C16.1485 9.84048 16.065 9.63881 16.065 9.42854V6.74996Z" fill="#7E7E7E" stroke="white" stroke-width="0.2"/>
</g>
<defs>
<clipPath id="clip0_1_2362">
<rect width="21.4286" height="21.4286" fill="white" transform="translate(0.786133 0.5)"/>
</clipPath>
</defs>
</svg>
