<svg width="74" height="67" viewBox="0 0 74 67" fill="none" xmlns="http://www.w3.org/2000/svg">
<g clip-path="url(#clip0_1_20541)">
<path d="M64.0034 38.8982C63.3688 39.9123 62.6458 40.855 61.8449 41.7129C61.3134 42.2824 60.7501 42.8144 60.1584 43.3058C59.8249 43.583 59.4831 43.8471 59.133 44.098L51.9799 46.6929C48.3726 46.685 38.0876 46.1536 31.6715 38.3256C30.0997 36.4081 27.915 33.6596 28.1877 29.938C28.5344 25.2178 32.5783 22.4544 33.2107 22.0362L33.2118 22.0388C33.5442 22.7867 33.8923 23.5198 34.2641 24.2319C34.9598 25.5885 35.7741 26.8663 36.6954 28.047C38.2391 30.0169 40.1549 31.5879 42.3075 32.6491C45.6378 34.3076 49.3077 34.7836 52.9229 34.9113C53.9712 34.949 61.9514 34.3119 62.434 35.1147C62.434 35.1147 64.3621 38.3237 64.0034 38.8982Z" fill="#FDD402"/>
<path d="M44.1005 38.2905C49.44 40.545 55.3217 40.6763 60.739 38.662C60.8236 38.6309 60.9018 38.5816 60.9691 38.517C61.0365 38.4524 61.0916 38.3737 61.1314 38.2854C61.1712 38.1972 61.1949 38.1011 61.2011 38.0027C61.2072 37.9043 61.1958 37.8055 61.1673 37.712C61.1389 37.6186 61.0941 37.5322 61.0354 37.4579C60.9768 37.3837 60.9054 37.3229 60.8255 37.2792C60.7456 37.2355 60.6587 37.2097 60.5697 37.2033C60.4808 37.1968 60.3916 37.2099 60.3072 37.2417C56.2338 38.7576 51.8605 38.9958 47.6723 37.9298C42.386 36.5836 37.0422 32.8219 34.9054 30.5012C34.842 30.432 34.7669 30.3774 34.6843 30.3404C34.6018 30.3034 34.5135 30.2848 34.4245 30.2856C34.3355 30.2865 34.2475 30.3067 34.1655 30.3452C34.0836 30.3837 34.0093 30.4397 33.9469 30.51C33.8845 30.5802 33.8353 30.6635 33.802 30.7548C33.7687 30.8462 33.7521 30.9439 33.753 31.0424C33.7539 31.1409 33.7723 31.2382 33.8073 31.3288C33.8422 31.4194 33.8929 31.5015 33.9566 31.5704C35.7474 33.5155 40.2342 36.6568 44.1005 38.2905Z" fill="#FDDE47"/>
<path d="M61.8449 41.7129C61.3134 42.2824 60.7501 42.8144 60.1584 43.3058C59.8249 43.583 59.4831 43.8471 59.133 44.098L51.9799 46.6929C48.3726 46.685 38.0876 46.1536 31.6715 38.3256C30.0997 36.4081 27.915 33.6596 28.1877 29.938C28.5344 25.2178 32.5783 22.4544 33.2107 22.0362L33.2118 22.0388C33.5442 22.7867 33.8923 23.5198 34.2641 24.2319C34.9598 25.5885 35.7741 26.8663 36.6954 28.047C38.0107 31.2591 39.8969 34.1275 42.9817 36.3324C46.0491 38.5257 49.6126 39.6069 53.1695 40.3345C53.8503 40.4736 57.5525 40.8252 60.0994 41.2983C60.688 41.3986 61.2709 41.5371 61.8449 41.7129Z" fill="#FBBF13"/>
<path d="M23.6765 23.5929C23.3476 25.504 23.2223 27.4513 23.3033 29.3947C23.3042 29.3951 23.3039 29.396 23.3035 29.397C23.3037 29.397 23.3038 29.3971 23.3038 29.3972C23.3039 29.3973 23.304 29.3974 23.3041 29.3975C23.3041 29.3976 23.3041 29.3977 23.3041 29.3979C23.3041 29.398 23.3041 29.3981 23.3041 29.3983C23.33 30.023 23.3786 30.6552 23.4508 31.2889C24.2162 37.9953 28.1612 44.5931 33.071 49.0374C34.2824 50.1395 35.5806 51.1193 36.9501 51.965C44.9263 56.8528 56.0915 56.5702 62.6176 48.9175C63.0509 48.4098 61.5802 44.9172 61.5802 44.9172C61.4549 44.6193 60.4486 44.3427 59.1343 44.0986C56.5874 43.6255 52.8852 43.2739 52.2044 43.1348C48.6475 42.4072 45.084 41.326 42.0166 39.1326C36.2901 35.0383 34.6938 28.6588 33.2131 22.0394L33.212 22.0368C32.7992 20.192 32.396 18.3277 31.9131 16.4897C31.8512 16.2518 31.7876 16.0143 31.7222 15.7771C31.6414 15.482 31.4344 14.7657 30.8592 14.3965C30.6366 14.2574 30.3876 14.1779 30.1323 14.1642C29.1978 14.0966 28.1622 14.7256 27.7932 14.9542C27.5819 15.0739 27.3856 15.2235 27.2094 15.3994C25.8775 16.9857 24.3267 19.8276 23.6765 23.5929Z" fill="#FDD402"/>
<path d="M43.6752 48.0884C44.7052 48.5244 45.762 48.8787 46.8375 49.1486C52.1975 50.4899 56.9275 49.4347 59.9516 48.3132C60.1219 48.2501 60.2626 48.1147 60.3426 47.9368C60.4227 47.7589 60.4356 47.5531 60.3785 47.3647C60.3214 47.1763 60.1991 47.0207 60.0383 46.9321C59.8775 46.8435 59.6915 46.8292 59.5212 46.8924C56.6611 47.953 52.1907 48.9519 47.1362 47.6871C46.1191 47.4318 45.1197 47.0967 44.1456 46.6844C37.5118 43.8816 32.1113 37.6221 30.2466 30.2795C28.8236 24.6765 29.604 19.6262 30.5091 16.3762C30.6722 15.7883 30.8555 15.2024 31.0541 14.6339C31.1189 14.4486 31.1144 14.2424 31.0417 14.0607C30.9691 13.8789 30.8341 13.7366 30.6666 13.665L30.664 13.6639C30.4967 13.5932 30.3108 13.5987 30.1472 13.6792C29.9835 13.7598 29.8554 13.9088 29.7908 14.0937C29.5807 14.6951 29.3868 15.3149 29.2146 15.9357C28.256 19.3773 27.4305 24.7307 28.9427 30.6849C30.9217 38.4773 36.6468 45.1185 43.6752 48.0884Z" fill="#FDDE47"/>
<path d="M58.508 43.9876C59.0779 45.9907 59.9087 48.9767 60.49 51.0253C61.2513 50.3898 61.9629 49.6846 62.6172 48.9171C63.0506 48.4094 61.5799 44.9167 61.5799 44.9167C61.4546 44.6189 60.4482 44.3423 59.1339 44.0981C58.9321 44.061 58.7227 44.0238 58.508 43.9876ZM61.6223 41.9489L61.6226 41.948C61.0414 39.8909 60.179 36.7612 59.5982 34.7085C61.077 34.7196 62.258 34.8208 62.4349 35.1148C62.4349 35.1148 64.3631 38.3238 64.0043 38.8983C63.311 40.006 62.5126 41.0284 61.6226 41.948L61.6223 41.9489ZM31.5318 15.2322C31.5146 14.5712 31.4607 13.3734 32.0683 12.0262C32.9898 9.98294 34.5711 9.09172 35.0882 8.82943C35.1092 8.68865 35.2602 7.55117 34.5072 6.64059C34.2836 6.37786 34.0142 6.16785 33.7153 6.02319C33.4165 5.87853 33.0943 5.80221 32.7681 5.79879C31.881 6.26955 31.0733 6.90478 30.38 7.677C29.4351 8.73145 28.9646 9.75526 28.6421 10.4716C27.9789 11.9683 27.5533 13.58 27.384 15.2364C27.6916 15.0568 28.5864 14.4045 29.6556 14.5356C30.5256 14.6423 31.2453 15.0076 31.5318 15.2322Z" fill="#8B8891"/>
</g>
<g clip-path="url(#clip1_1_20541)">
<path d="M36.3402 42.6633V43.9148C36.3401 47.0018 35.2317 49.9623 33.2588 52.1451C31.2859 54.3279 28.6101 55.5542 25.82 55.5543H24.1218C22.813 55.5563 21.5155 55.2868 20.2965 54.7598C20.1821 54.7104 20.0684 54.6595 19.9554 54.6053C18.0685 53.7046 16.4613 52.2122 15.3321 50.3124C14.203 48.4126 13.6014 46.1886 13.6016 43.9148V42.6633C13.6016 40.4756 14.3871 38.3776 15.7853 36.8306C17.1835 35.2837 19.0798 34.4146 21.0571 34.4146H28.8847C30.862 34.4146 32.7583 35.2837 34.1565 36.8306C35.5546 38.3776 36.3402 40.4756 36.3402 42.6633Z" fill="#E5303E"/>
<path d="M30.4497 37.6347C30.7617 38.2018 30.9426 38.8452 30.9764 39.508C30.7778 39.5422 29.3171 39.7787 28.0298 39.2668C28.0074 39.258 27.9844 39.2485 27.9621 39.2389C27.9384 39.2293 27.9153 39.219 27.8923 39.2087C27.8657 39.1975 27.8391 39.1848 27.8132 39.1728C27.7808 39.1577 27.7491 39.1418 27.7175 39.1251C27.6556 39.094 27.5951 39.0606 27.5354 39.0247C27.5181 39.0144 27.5001 39.004 27.4829 38.9929C27.4591 38.9786 27.4361 38.9634 27.4138 38.9483C27.4112 38.9472 27.4087 38.9456 27.4066 38.9435C27.3843 38.9292 27.362 38.9141 27.3404 38.8982C27.2987 38.8695 27.2569 38.8392 27.2166 38.8074C27.1922 38.7883 27.1677 38.7684 27.1432 38.7485C26.8323 38.4954 26.5784 38.1663 26.4014 37.7868C26.2238 38.1661 25.9697 38.4952 25.6587 38.7485C24.2678 39.9045 22.0724 39.551 21.8256 39.508C21.7715 38.6783 21.9823 37.854 22.4213 37.1786C22.8602 36.5033 23.4994 36.0198 24.2275 35.8123C23.5601 35.7297 22.9424 35.382 22.489 34.8339C22.3837 34.7038 22.2893 34.5633 22.2069 34.4143C21.8888 33.817 21.7537 33.1219 21.822 32.4327C21.8234 32.4216 21.8248 32.412 21.8256 32.4041C22.0486 32.3651 23.8591 32.0737 25.2327 32.8674C25.0178 32.3044 24.9526 31.6851 25.0449 31.0825C25.1018 30.7284 25.2138 30.3879 25.376 30.0762C26.2574 30.0149 27.1394 29.9539 28.0218 29.8931C27.9146 30.1892 27.8315 30.4953 27.7736 30.8078C27.7124 31.1374 27.6656 31.3906 27.6908 31.7226C27.7167 32.043 27.8012 32.3542 27.9391 32.6374C28.9242 32.3163 29.9607 32.2367 30.9764 32.4041C30.9425 33.0666 30.7616 33.7098 30.4497 34.2766C30.0204 35.0391 29.3779 35.6259 28.6198 35.9477V35.9644C29.3781 36.2855 30.0207 36.8721 30.4497 37.6347Z" fill="#37B678"/>
<path d="M26.3597 37.8746L26.4021 37.787L28.0305 39.267C28.136 39.8588 28.189 40.4606 28.1888 41.0639V42.4635C28.1888 45.1657 27.4292 47.801 26.0151 50.0042C24.6009 52.2074 22.6024 53.8693 20.2965 54.7598C20.1821 54.7104 20.0684 54.6595 19.9554 54.6053C18.0685 53.7045 16.4613 52.2122 15.3321 50.3124C14.203 48.4126 13.6014 46.1886 13.6016 43.9148V42.6633C13.6016 40.4756 14.3871 38.3776 15.7853 36.8306C17.1835 35.2837 19.0798 34.4146 21.0571 34.4146H22.2077L23.7584 35.7075H23.7598L23.7606 35.7083L23.9851 35.8954L26.3597 37.8746Z" fill="#B72732"/>
<path d="M28.0298 39.267C28.0074 39.2583 27.9844 39.2487 27.9621 39.2391C27.9384 39.2296 27.9153 39.2192 27.8923 39.2089C27.8657 39.1977 27.8391 39.185 27.8132 39.1731C27.7808 39.1579 27.7491 39.142 27.7175 39.1253C27.6556 39.0942 27.5951 39.0608 27.5354 39.025C27.5181 39.0146 27.5001 39.0043 27.4829 38.9932C27.4591 38.9788 27.4361 38.9637 27.4138 38.9486C27.4112 38.9475 27.4087 38.9458 27.4066 38.9438C27.3843 38.9294 27.362 38.9143 27.3404 38.8984C27.2987 38.8697 27.2569 38.8395 27.2166 38.8076C27.1922 38.7885 27.1677 38.7686 27.1432 38.7487C26.8323 38.4957 26.5784 38.1665 26.4014 37.787C26.2238 38.1664 25.9697 38.4954 25.6588 38.7487C24.2678 39.9047 22.0724 39.5512 21.8256 39.5082C21.7715 38.6786 21.9823 37.8542 22.4213 37.1789C22.8602 36.5035 23.4994 36.02 24.2275 35.8126C23.5601 35.7299 22.9424 35.3823 22.489 34.8341C22.3837 34.704 22.2893 34.5636 22.2069 34.4146C21.8888 33.8173 21.7537 33.1222 21.822 32.433C22.0047 32.4115 22.2235 32.4863 22.3616 32.5317C22.9387 32.7204 23.4856 33.0389 24.0131 33.3533C24.6643 33.741 25.3155 34.1136 25.843 34.6996C26.3568 35.2692 26.7983 35.9133 27.1555 36.6143C27.5742 37.4406 27.8695 38.3364 28.0298 39.267Z" fill="#00A653"/>
<path d="M8.93637 31.8384H17.6911C18.7861 31.8384 19.8705 32.077 20.8821 32.5407C21.8938 33.0043 22.8131 33.6839 23.5874 34.5406C24.3617 35.3973 24.976 36.4143 25.395 37.5337C25.8141 38.653 26.0298 39.8527 26.0298 41.0643V42.4639C26.0298 45.9165 24.7901 49.2278 22.5835 51.6691C20.3769 54.1105 17.3841 55.482 14.2635 55.482H12.3639C9.24332 55.482 6.25053 54.1105 4.04392 51.6691C1.83732 49.2278 0.597657 45.9165 0.597656 42.4639V41.0643C0.597656 39.8527 0.813343 38.653 1.2324 37.5337C1.65146 36.4143 2.26569 35.3973 3.04001 34.5406C3.81433 33.6839 4.73358 33.0043 5.74528 32.5407C6.75698 32.077 7.84131 31.8384 8.93637 31.8384Z" fill="#E5303E"/>
<path d="M15.7863 33.5717V33.5527C16.6343 33.1932 17.353 32.5372 17.8332 31.6844C18.1816 31.0501 18.3837 30.3307 18.4217 29.5896C17.2856 29.4021 16.1263 29.4913 15.0247 29.8508C14.8704 29.5341 14.776 29.186 14.7472 28.8276C14.7187 28.4566 14.7713 28.1731 14.8397 27.8045C14.9046 27.455 14.9975 27.1126 15.1171 26.7812C14.1307 26.8495 13.1442 26.9177 12.1578 26.9859C11.9767 27.3346 11.8515 27.7154 11.7878 28.1114C11.6846 28.7855 11.7576 29.4781 11.9981 30.1079C10.4618 29.2198 8.43669 29.5462 8.1874 29.5896C8.16259 29.7956 8.01719 31.1802 8.92939 32.3071C9.43635 32.9205 10.1273 33.3095 10.8739 33.4019C10.0595 33.6337 9.34456 34.1743 8.85361 34.9296C8.36265 35.6849 8.12688 36.6069 8.1874 37.5348C8.46354 37.5829 10.9186 37.9785 12.4747 36.6856C12.8225 36.4025 13.1065 36.0343 13.3045 35.6099C13.5026 36.0343 13.7866 36.4025 14.1343 36.6856C15.6904 37.9785 18.1455 37.5829 18.4217 37.5348C18.3837 36.7937 18.1816 36.0744 17.8332 35.44C17.353 34.5872 16.6343 33.9312 15.7863 33.5717Z" fill="#37B678"/>
<path d="M9.62657 37.5347C9.56605 36.6068 9.80181 35.6848 10.2928 34.9295C10.7837 34.1742 11.4987 33.6336 12.3131 33.4018C11.5664 33.3095 10.8755 32.9205 10.3685 32.3071C9.45634 31.1801 9.60174 29.7955 9.62657 29.5895C9.68586 29.5792 9.84652 29.5529 10.0763 29.5307C9.44675 29.469 8.81284 29.4887 8.18741 29.5895C8.16259 29.7955 8.01718 31.1801 8.92939 32.3071C9.43635 32.9205 10.1273 33.3095 10.8739 33.4018C10.0596 33.6336 9.34456 34.1742 8.85361 34.9295C8.36266 35.6848 8.12689 36.6068 8.18742 37.5347C8.81266 37.6354 9.44637 37.6552 10.0757 37.5936C9.84606 37.5713 9.68584 37.545 9.62657 37.5347Z" fill="#00A653"/>
</g>
<defs>
<clipPath id="clip0_1_20541">
<rect width="46.8844" height="50.5487" fill="white" transform="matrix(0.921143 0.389223 -0.326293 0.945269 30.8125 0)"/>
</clipPath>
<clipPath id="clip1_1_20541">
<rect width="36.8424" height="40.7621" fill="white" transform="translate(0.046875 20.7866)"/>
</clipPath>
</defs>
</svg>
