<svg width="66" height="66" viewBox="0 0 66 66" fill="none" xmlns="http://www.w3.org/2000/svg">
<path d="M34.7496 52.1255H8.17578V57.2358H34.7496V52.1255Z" fill="#DBDBDB"/>
<path d="M6.13398 8.17676H49.0608C49.603 8.17676 50.1229 8.39212 50.5063 8.77547C50.8896 9.15882 51.105 9.67876 51.105 10.2209V53.1478H4.08984V10.2209C4.08984 9.67876 4.30521 9.15882 4.68856 8.77547C5.07191 8.39212 5.59184 8.17676 6.13398 8.17676Z" fill="#EBEBEB"/>
<path d="M6.13398 8.17676H49.0608C49.603 8.17676 50.1229 8.39212 50.5063 8.77547C50.8896 9.15882 51.105 9.67876 51.105 10.2209V16.3533H4.08984V10.2209C4.08984 9.67876 4.30521 9.15882 4.68856 8.77547C5.07191 8.39212 5.59184 8.17676 6.13398 8.17676Z" fill="#FF725E"/>
<path d="M12.2629 26.5736C13.3918 26.5736 14.307 25.6584 14.307 24.5295C14.307 23.4005 13.3918 22.4854 12.2629 22.4854C11.1339 22.4854 10.2188 23.4005 10.2188 24.5295C10.2188 25.6584 11.1339 26.5736 12.2629 26.5736Z" fill="#CBCBCB"/>
<path d="M22.4855 26.5736C23.6145 26.5736 24.5297 25.6584 24.5297 24.5295C24.5297 23.4005 23.6145 22.4854 22.4855 22.4854C21.3566 22.4854 20.4414 23.4005 20.4414 24.5295C20.4414 25.6584 21.3566 26.5736 22.4855 26.5736Z" fill="#CBCBCB"/>
<path d="M32.7043 26.5736C33.8332 26.5736 34.7484 25.6584 34.7484 24.5295C34.7484 23.4005 33.8332 22.4854 32.7043 22.4854C31.5753 22.4854 30.6602 23.4005 30.6602 24.5295C30.6602 25.6584 31.5753 26.5736 32.7043 26.5736Z" fill="#CBCBCB"/>
<path d="M12.2629 34.7504C13.3918 34.7504 14.307 33.8352 14.307 32.7062C14.307 31.5773 13.3918 30.6621 12.2629 30.6621C11.1339 30.6621 10.2188 31.5773 10.2188 32.7062C10.2188 33.8352 11.1339 34.7504 12.2629 34.7504Z" fill="#CBCBCB"/>
<path d="M22.4855 34.7504C23.6145 34.7504 24.5297 33.8352 24.5297 32.7062C24.5297 31.5773 23.6145 30.6621 22.4855 30.6621C21.3566 30.6621 20.4414 31.5773 20.4414 32.7062C20.4414 33.8352 21.3566 34.7504 22.4855 34.7504Z" fill="#F9ADB1"/>
<path d="M12.2629 42.9267C13.3918 42.9267 14.307 42.0115 14.307 40.8825C14.307 39.7536 13.3918 38.8384 12.2629 38.8384C11.1339 38.8384 10.2188 39.7536 10.2188 40.8825C10.2188 42.0115 11.1339 42.9267 12.2629 42.9267Z" fill="#CBCBCB"/>
<path d="M22.4855 42.9267C23.6145 42.9267 24.5297 42.0115 24.5297 40.8825C24.5297 39.7536 23.6145 38.8384 22.4855 38.8384C21.3566 38.8384 20.4414 39.7536 20.4414 40.8825C20.4414 42.0115 21.3566 42.9267 22.4855 42.9267Z" fill="#CBCBCB"/>
<path d="M44.9703 60.3019C54.0018 60.3019 61.3234 52.9804 61.3234 43.9488C61.3234 34.9172 54.0018 27.5957 44.9703 27.5957C35.9387 27.5957 28.6172 34.9172 28.6172 43.9488C28.6172 52.9804 35.9387 60.3019 44.9703 60.3019Z" fill="#5A27CE"/>
<path d="M44.9719 56.2137C51.7455 56.2137 57.2367 50.7226 57.2367 43.9489C57.2367 37.1752 51.7455 31.6841 44.9719 31.6841C38.1982 31.6841 32.707 37.1752 32.707 43.9489C32.707 50.7226 38.1982 56.2137 44.9719 56.2137Z" fill="#F9F9F9"/>
<path d="M44.9726 45.9929C44.9233 45.9932 44.8741 45.9894 44.8254 45.9816C44.6837 45.9611 44.5478 45.911 44.4267 45.8346C44.3055 45.7581 44.2018 45.6571 44.1222 45.538L42.0781 42.4718C41.9276 42.2463 41.873 41.9703 41.926 41.7044C41.9791 41.4385 42.1357 41.2047 42.3612 41.0542C42.5867 40.9038 42.8628 40.8491 43.1286 40.9022C43.3945 40.9553 43.6284 41.1118 43.7788 41.3373L45.1923 43.4581L50.4509 39.0745C50.6593 38.901 50.9282 38.8174 51.1982 38.8422C51.4683 38.8669 51.7175 38.9979 51.891 39.2063C52.0645 39.4148 52.148 39.6836 52.1233 39.9537C52.0986 40.2238 51.9676 40.4729 51.7591 40.6464L45.6267 45.7568C45.443 45.9095 45.2115 45.993 44.9726 45.9929Z" fill="#FBB540"/>
<path d="M44.9713 52.1254C44.7002 52.1254 44.4402 52.2331 44.2486 52.4248C44.0569 52.6165 43.9492 52.8764 43.9492 53.1475V56.1626C44.2875 56.1902 44.6258 56.2137 44.9713 56.2137C45.3167 56.2137 45.6551 56.1902 45.9934 56.1626V53.1475C45.9934 52.8764 45.8857 52.6165 45.694 52.4248C45.5023 52.2331 45.2424 52.1254 44.9713 52.1254ZM44.9713 31.6841C44.6258 31.6841 44.2875 31.7076 43.9492 31.7352V34.7503C43.9492 35.0214 44.0569 35.2813 44.2486 35.473C44.4402 35.6647 44.7002 35.7724 44.9713 35.7724C45.2424 35.7724 45.5023 35.6647 45.694 35.473C45.8857 35.2813 45.9934 35.0214 45.9934 34.7503V31.7352C45.6551 31.7076 45.3167 31.6841 44.9713 31.6841Z" fill="#DBDBDB"/>
<path d="M12.2629 5.11035C12.805 5.11035 13.325 5.32572 13.7083 5.70907C14.0917 6.09242 14.307 6.61235 14.307 7.15449V11.2428H10.2188V7.15449C10.2188 6.61235 10.4341 6.09242 10.8175 5.70907C11.2008 5.32572 11.7207 5.11035 12.2629 5.11035ZM22.4836 5.11035C23.0257 5.11035 23.5456 5.32572 23.929 5.70907C24.3123 6.09242 24.5277 6.61235 24.5277 7.15449V11.2428H20.4394V7.15449C20.4394 6.61235 20.6548 6.09242 21.0381 5.70907C21.4215 5.32572 21.9414 5.11035 22.4836 5.11035ZM32.7043 5.11035C33.2464 5.11035 33.7663 5.32572 34.1497 5.70907C34.533 6.09242 34.7484 6.61235 34.7484 7.15449V11.2428H30.6601V7.15449C30.6601 6.61235 30.8755 6.09242 31.2588 5.70907C31.6422 5.32572 32.1621 5.11035 32.7043 5.11035ZM42.9249 5.11035C43.4671 5.11035 43.987 5.32572 44.3704 5.70907C44.7537 6.09242 44.9691 6.61235 44.9691 7.15449V11.2428H40.8808V7.15449C40.8808 6.61235 41.0962 6.09242 41.4795 5.70907C41.8629 5.32572 42.3828 5.11035 42.9249 5.11035Z" fill="#C3C3C3"/>
<path d="M35.7732 45.9929C36.0443 45.9929 36.3043 45.8852 36.4959 45.6935C36.6876 45.5018 36.7953 45.2419 36.7953 44.9708C36.7953 44.6997 36.6876 44.4398 36.4959 44.2481C36.3043 44.0564 36.0443 43.9487 35.7732 43.9487H32.707C32.7111 44.6341 32.7726 45.3178 32.891 45.9929H35.7732ZM53.1484 44.9708C53.1484 45.2419 53.2561 45.5018 53.4478 45.6935C53.6394 45.8852 53.8994 45.9929 54.1705 45.9929H57.0527C57.1711 45.3178 57.2326 44.6341 57.2367 43.9487H54.1705C53.8994 43.9487 53.6394 44.0564 53.4478 44.2481C53.2561 44.4398 53.1484 44.6997 53.1484 44.9708Z" fill="#DBDBDB"/>
</svg>
