<svg width="104" height="100" viewBox="0 0 104 100" fill="none" xmlns="http://www.w3.org/2000/svg">
<g filter="url(#filter0_d_1_31797)">
<path d="M0 10C0 4.47716 4.47715 0 10 0H100V100H10C4.47716 100 0 95.5229 0 90V10Z" fill="#4388F0"/>
<circle cx="49.6102" cy="49.6102" r="30.6102" fill="#4389F0"/>
<mask id="mask0_1_31797" style="mask-type:alpha" maskUnits="userSpaceOnUse" x="32" y="32" width="35" height="35">
<rect x="32.6016" y="32.604" width="34.0113" height="34.0113" fill="#D9D9D9"/>
</mask>
<g mask="url(#mask0_1_31797)">
<path d="M41.1061 52.4449H52.4431V49.6106H41.1061V52.4449ZM41.1061 48.1934H58.1117V45.3592H41.1061V48.1934ZM41.1061 43.942H58.1117V41.1078H41.1061V43.942ZM35.4375 63.782V38.2735C35.4375 37.4941 35.7153 36.8266 36.2708 36.2711C36.8254 35.7165 37.4923 35.4392 38.2718 35.4392H60.946C61.7254 35.4392 62.3929 35.7165 62.9484 36.2711C63.503 36.8266 63.7802 37.4941 63.7802 38.2735V55.2791C63.7802 56.0586 63.503 56.726 62.9484 57.2815C62.3929 57.8361 61.7254 58.1134 60.946 58.1134H41.1061L35.4375 63.782ZM38.2718 56.9443L39.9369 55.2791H60.946V38.2735H38.2718V56.9443Z" fill="white"/>
</g>
</g>
<defs>
<filter id="filter0_d_1_31797" x="-4" y="-4" width="108" height="108" filterUnits="userSpaceOnUse" color-interpolation-filters="sRGB">
<feFlood flood-opacity="0" result="BackgroundImageFix"/>
<feColorMatrix in="SourceAlpha" type="matrix" values="0 0 0 0 0 0 0 0 0 0 0 0 0 0 0 0 0 0 127 0" result="hardAlpha"/>
<feOffset/>
<feGaussianBlur stdDeviation="2"/>
<feComposite in2="hardAlpha" operator="out"/>
<feColorMatrix type="matrix" values="0 0 0 0 0 0 0 0 0 0 0 0 0 0 0 0 0 0 0.25 0"/>
<feBlend mode="normal" in2="BackgroundImageFix" result="effect1_dropShadow_1_31797"/>
<feBlend mode="normal" in="SourceGraphic" in2="effect1_dropShadow_1_31797" result="shape"/>
</filter>
</defs>
</svg>
