<svg width="25" height="26" viewBox="0 0 25 26" fill="none" xmlns="http://www.w3.org/2000/svg">
<g id="fluent:document-bullet-list-20-regular">
<path id="Vector" d="M7.5 13.4106C7.5 13.2449 7.56585 13.0859 7.68306 12.9687C7.80027 12.8515 7.95924 12.7856 8.125 12.7856C8.29076 12.7856 8.44973 12.8515 8.56694 12.9687C8.68415 13.0859 8.75 13.2449 8.75 13.4106C8.75 13.5764 8.68415 13.7354 8.56694 13.8526C8.44973 13.9698 8.29076 14.0356 8.125 14.0356C7.95924 14.0356 7.80027 13.9698 7.68306 13.8526C7.56585 13.7354 7.5 13.5764 7.5 13.4106ZM8.125 15.2856C7.95924 15.2856 7.80027 15.3515 7.68306 15.4687C7.56585 15.5859 7.5 15.7449 7.5 15.9106C7.5 16.0764 7.56585 16.2354 7.68306 16.3526C7.80027 16.4698 7.95924 16.5356 8.125 16.5356C8.29076 16.5356 8.44973 16.4698 8.56694 16.3526C8.68415 16.2354 8.75 16.0764 8.75 15.9106C8.75 15.7449 8.68415 15.5859 8.56694 15.4687C8.44973 15.3515 8.29076 15.2856 8.125 15.2856ZM7.5 18.4106C7.5 18.2449 7.56585 18.0859 7.68306 17.9687C7.80027 17.8515 7.95924 17.7856 8.125 17.7856C8.29076 17.7856 8.44973 17.8515 8.56694 17.9687C8.68415 18.0859 8.75 18.2449 8.75 18.4106C8.75 18.5764 8.68415 18.7354 8.56694 18.8526C8.44973 18.9698 8.29076 19.0356 8.125 19.0356C7.95924 19.0356 7.80027 18.9698 7.68306 18.8526C7.56585 18.7354 7.5 18.5764 7.5 18.4106ZM10.625 12.7856C10.4592 12.7856 10.3003 12.8515 10.1831 12.9687C10.0658 13.0859 10 13.2449 10 13.4106C10 13.5764 10.0658 13.7354 10.1831 13.8526C10.3003 13.9698 10.4592 14.0356 10.625 14.0356H16.875C17.0408 14.0356 17.1997 13.9698 17.3169 13.8526C17.4342 13.7354 17.5 13.5764 17.5 13.4106C17.5 13.2449 17.4342 13.0859 17.3169 12.9687C17.1997 12.8515 17.0408 12.7856 16.875 12.7856H10.625ZM10 15.9106C10 15.7449 10.0658 15.5859 10.1831 15.4687C10.3003 15.3515 10.4592 15.2856 10.625 15.2856H16.875C17.0408 15.2856 17.1997 15.3515 17.3169 15.4687C17.4342 15.5859 17.5 15.7449 17.5 15.9106C17.5 16.0764 17.4342 16.2354 17.3169 16.3526C17.1997 16.4698 17.0408 16.5356 16.875 16.5356H10.625C10.4592 16.5356 10.3003 16.4698 10.1831 16.3526C10.0658 16.2354 10 16.0764 10 15.9106ZM10.625 17.7856C10.4592 17.7856 10.3003 17.8515 10.1831 17.9687C10.0658 18.0859 10 18.2449 10 18.4106C10 18.5764 10.0658 18.7354 10.1831 18.8526C10.3003 18.9698 10.4592 19.0356 10.625 19.0356H16.875C17.0408 19.0356 17.1997 18.9698 17.3169 18.8526C17.4342 18.7354 17.5 18.5764 17.5 18.4106C17.5 18.2449 17.4342 18.0859 17.3169 17.9687C17.1997 17.8515 17.0408 17.7856 16.875 17.7856H10.625ZM7.5 2.78564C6.83696 2.78564 6.20107 3.04904 5.73223 3.51788C5.26339 3.98672 5 4.6226 5 5.28564V20.2856C5 20.9487 5.26339 21.5846 5.73223 22.0534C6.20107 22.5223 6.83696 22.7856 7.5 22.7856H17.5C18.163 22.7856 18.7989 22.5223 19.2678 22.0534C19.7366 21.5846 20 20.9487 20 20.2856V9.55314C19.9996 9.05603 19.8017 8.57944 19.45 8.22814L14.5575 3.33439C14.206 2.98312 13.7294 2.78575 13.2325 2.78564H7.5ZM6.25 5.28564C6.25 4.95412 6.3817 4.63618 6.61612 4.40176C6.85054 4.16734 7.16848 4.03564 7.5 4.03564H12.5V8.41064C12.5 8.90793 12.6975 9.38484 13.0492 9.73647C13.4008 10.0881 13.8777 10.2856 14.375 10.2856H18.75V20.2856C18.75 20.6172 18.6183 20.9351 18.3839 21.1695C18.1495 21.4039 17.8315 21.5356 17.5 21.5356H7.5C7.16848 21.5356 6.85054 21.4039 6.61612 21.1695C6.3817 20.9351 6.25 20.6172 6.25 20.2856V5.28564ZM18.4913 9.03564H14.375C14.2092 9.03564 14.0503 8.9698 13.9331 8.85259C13.8158 8.73538 13.75 8.5764 13.75 8.41064V4.29439L18.4913 9.03564Z" fill="#7E7E7E"/>
</g>
</svg>
