<svg width="62" height="62" viewBox="0 0 62 62" fill="none" xmlns="http://www.w3.org/2000/svg">
<path d="M28.3421 57.086C42.5668 57.086 54.0982 45.5546 54.0982 31.3299C54.0982 17.1051 42.5668 5.57373 28.3421 5.57373C14.1173 5.57373 2.58594 17.1051 2.58594 31.3299C2.58594 45.5546 14.1173 57.086 28.3421 57.086Z" fill="#FCC63F"/>
<path d="M34.0649 5.57374C33.1087 5.57512 32.1533 5.62926 31.2031 5.73591C37.4945 6.44527 43.3043 9.44706 47.5229 14.1681C51.7416 18.8891 54.0735 24.9986 54.0735 31.3299C54.0735 37.6611 51.7416 43.7706 47.5229 48.4916C43.3043 53.2127 37.4945 56.2145 31.2031 56.9238C34.6861 57.3165 38.2126 56.9942 41.5666 55.9765C44.9207 54.9589 48.0318 53.2674 50.7094 51.0056C53.3869 48.7437 55.5747 45.9592 57.1387 42.8224C58.7026 39.6856 59.6099 36.2627 59.805 32.763C60 29.2634 59.4787 25.7608 58.2729 22.4697C57.0672 19.1786 55.2024 16.1682 52.7927 13.6228C50.3831 11.0775 47.4792 9.05075 44.259 7.66672C41.0388 6.28269 37.57 5.5705 34.0649 5.57374Z" fill="#E4AF2E"/>
<path d="M28.3411 51.3624C39.4048 51.3624 48.3737 42.3936 48.3737 31.3299C48.3737 20.2662 39.4048 11.2974 28.3411 11.2974C17.2775 11.2974 8.30859 20.2662 8.30859 31.3299C8.30859 42.3936 17.2775 51.3624 28.3411 51.3624Z" fill="#FFD956"/>
<path d="M49.7552 17.0208H55.4788C55.0381 16.3626 54.5681 15.7266 54.0689 15.1129H48.3453C48.8445 15.7266 49.3145 16.3626 49.7552 17.0208ZM57.5879 20.8365H51.871C52.1486 21.4594 52.3986 22.0966 52.6275 22.7444H58.3511C58.124 22.0957 57.8697 21.4597 57.5879 20.8365ZM59.3746 26.5601H53.6568C53.7741 27.1878 53.8647 27.825 53.9353 28.4679H59.6589C59.5896 27.8285 59.4947 27.192 59.3746 26.5601ZM59.7991 32.2837H54.0756C54.0527 32.926 54.0056 33.5619 53.9344 34.1915H59.658C59.7276 33.5619 59.7753 32.9257 59.7991 32.2837ZM58.6726 38.9612H52.9432C52.7439 39.605 52.5211 40.2414 52.2755 40.869H57.9991C58.2404 40.2433 58.4722 39.6098 58.6726 38.9612ZM56.0941 44.6848H50.3648C49.966 45.3411 49.5393 45.977 49.0846 46.5926H54.8082C55.2651 45.9764 55.6953 45.3411 56.0941 44.6848ZM51.3693 50.4083H45.6352C44.8844 51.0901 44.0941 51.7272 43.2685 52.3162H48.9921C49.8212 51.7274 50.615 51.0904 51.3693 50.4083ZM45.6352 12.2511H51.3693C50.6141 11.569 49.8193 10.9319 48.9892 10.3433H43.2656C44.0922 10.9322 44.8834 11.5692 45.6352 12.2511Z" fill="#CE9926"/>
<path d="M28.3418 20.8365C29.6063 20.8381 30.8186 21.3411 31.7128 22.2352C32.607 23.1294 33.11 24.3417 33.1115 25.6062C33.1115 25.8592 33.212 26.1018 33.3909 26.2807C33.5698 26.4596 33.8124 26.5601 34.0654 26.5601C34.3184 26.5601 34.561 26.4596 34.7399 26.2807C34.9188 26.1018 35.0193 25.8592 35.0193 25.6062C35.0163 24.0022 34.4364 22.4527 33.3856 21.2408C32.3348 20.0289 30.8832 19.2353 29.2957 19.005V17.0208C29.2957 16.7678 29.1952 16.5252 29.0163 16.3463C28.8375 16.1674 28.5948 16.0669 28.3418 16.0669C28.0888 16.0669 27.8462 16.1674 27.6673 16.3463C27.4884 16.5252 27.3879 16.7678 27.3879 17.0208V19.005C25.8005 19.2353 24.3488 20.0289 23.298 21.2408C22.2472 22.4527 21.6674 24.0022 21.6643 25.6062V26.5601C21.6627 27.5964 21.9687 28.6098 22.5435 29.4719C23.1184 30.3341 23.9362 31.0063 24.8934 31.4032L31.0567 33.9712C31.6658 34.2239 32.1862 34.6517 32.552 35.2003C32.9178 35.749 33.1125 36.3939 33.1115 37.0534C33.1115 38.3184 32.609 39.5315 31.7145 40.426C30.82 41.3205 29.6068 41.823 28.3418 41.823C27.0768 41.823 25.8636 41.3205 24.9692 40.426C24.0747 39.5315 23.5722 38.3184 23.5722 37.0534C23.5722 36.8004 23.4717 36.5577 23.2928 36.3788C23.1139 36.1999 22.8712 36.0994 22.6182 36.0994C22.3652 36.0994 22.1226 36.1999 21.9437 36.3788C21.7648 36.5577 21.6643 36.8004 21.6643 37.0534C21.6674 38.6574 22.2472 40.2068 23.298 41.4188C24.3488 42.6307 25.8005 43.4242 27.3879 43.6546V45.6387C27.3879 45.8917 27.4884 46.1344 27.6673 46.3133C27.8462 46.4922 28.0888 46.5927 28.3418 46.5927C28.5948 46.5927 28.8375 46.4922 29.0163 46.3133C29.1952 46.1344 29.2957 45.8917 29.2957 45.6387V43.6546C30.8832 43.4242 32.3348 42.6307 33.3856 41.4188C34.4364 40.2068 35.0163 38.6574 35.0193 37.0534C35.021 36.0171 34.715 35.0037 34.1401 34.1416C33.5653 33.2794 32.7475 32.6072 31.7903 32.2103L25.6269 29.6423C25.0178 29.3896 24.4974 28.9618 24.1316 28.4132C23.7658 27.8645 23.5711 27.2196 23.5722 26.5601V25.6062C23.5737 24.3417 24.0767 23.1294 24.9708 22.2352C25.865 21.3411 27.0773 20.8381 28.3418 20.8365ZM14.9868 28.468H13.0789C12.8259 28.468 12.5833 28.5685 12.4044 28.7474C12.2255 28.9263 12.125 29.1689 12.125 29.4219C12.125 29.6749 12.2255 29.9176 12.4044 30.0965C12.5833 30.2753 12.8259 30.3759 13.0789 30.3759H14.9868C15.2398 30.3759 15.4824 30.2753 15.6613 30.0965C15.8402 29.9176 15.9407 29.6749 15.9407 29.4219C15.9407 29.1689 15.8402 28.9263 15.6613 28.7474C15.4824 28.5685 15.2398 28.468 14.9868 28.468ZM14.9868 32.2837H13.0789C12.8259 32.2837 12.5833 32.3842 12.4044 32.5631C12.2255 32.742 12.125 32.9846 12.125 33.2376C12.125 33.4906 12.2255 33.7333 12.4044 33.9122C12.5833 34.0911 12.8259 34.1916 13.0789 34.1916H14.9868C15.2398 34.1916 15.4824 34.0911 15.6613 33.9122C15.8402 33.7333 15.9407 33.4906 15.9407 33.2376C15.9407 32.9846 15.8402 32.742 15.6613 32.5631C15.4824 32.3842 15.2398 32.2837 14.9868 32.2837ZM41.6968 30.3759H43.6047C43.8577 30.3759 44.1003 30.2753 44.2792 30.0965C44.4581 29.9176 44.5586 29.6749 44.5586 29.4219C44.5586 29.1689 44.4581 28.9263 44.2792 28.7474C44.1003 28.5685 43.8577 28.468 43.6047 28.468H41.6968C41.4438 28.468 41.2012 28.5685 41.0223 28.7474C40.8434 28.9263 40.7429 29.1689 40.7429 29.4219C40.7429 29.6749 40.8434 29.9176 41.0223 30.0965C41.2012 30.2753 41.4438 30.3759 41.6968 30.3759ZM43.6047 32.2837H41.6968C41.4438 32.2837 41.2012 32.3842 41.0223 32.5631C40.8434 32.742 40.7429 32.9846 40.7429 33.2376C40.7429 33.4906 40.8434 33.7333 41.0223 33.9122C41.2012 34.0911 41.4438 34.1916 41.6968 34.1916H43.6047C43.8577 34.1916 44.1003 34.0911 44.2792 33.9122C44.4581 33.7333 44.5586 33.4906 44.5586 33.2376C44.5586 32.9846 44.4581 32.742 44.2792 32.5631C44.1003 32.3842 43.8577 32.2837 43.6047 32.2837Z" fill="#E4AF2E"/>
<path d="M28.3418 52.3162C25.3058 52.3139 22.3065 51.653 19.5508 50.3789C16.795 49.1049 14.3485 47.2481 12.3801 44.9368C10.4116 42.6254 8.96811 39.9145 8.14912 36.9911C7.33013 34.0676 7.15518 31.0013 7.63633 28.0037C8.11749 25.0061 9.24329 22.1486 10.9361 19.6283C12.6288 17.1081 14.8483 14.9851 17.4412 13.4059C20.0341 11.8267 22.9388 10.8288 25.9548 10.4813C28.9709 10.1337 32.0264 10.4446 34.9106 11.3926C35.1509 11.4718 35.35 11.6432 35.4639 11.8691C35.5779 12.0951 35.5974 12.357 35.5182 12.5974C35.439 12.8377 35.2676 13.0368 35.0417 13.1507C34.8157 13.2647 34.5538 13.2842 34.3134 13.205C29.7462 11.6963 24.7779 11.9664 20.4012 13.9616C16.0245 15.9567 12.5619 19.5299 10.7052 23.9671C8.84858 28.4043 8.73464 33.3786 10.3862 37.8962C12.0377 42.4137 15.3331 46.1417 19.6138 48.3352C23.8945 50.5286 28.8453 51.026 33.4768 49.7279C38.1083 48.4298 42.0794 45.4319 44.5966 41.3331C47.1138 37.2344 47.9916 32.3368 47.0547 27.6189C46.1178 22.9011 43.4352 18.7105 39.5429 15.8846C39.3382 15.7359 39.201 15.5119 39.1614 15.262C39.1219 15.0121 39.1833 14.7567 39.332 14.552C39.4808 14.3473 39.7048 14.2101 39.9547 14.1706C40.2046 14.1311 40.46 14.1924 40.6647 14.3412C44.2536 16.9442 46.926 20.6169 48.2985 24.8326C49.6711 29.0482 49.6733 33.5903 48.3049 37.8073C46.9365 42.0243 44.2677 45.6997 40.6813 48.3062C37.095 50.9127 32.7753 52.3165 28.3418 52.3162Z" fill="#FFE89A"/>
</svg>
