<svg width="238" height="238" viewBox="0 0 238 238" fill="none" xmlns="http://www.w3.org/2000/svg">
<g clip-path="url(#clip0_1_185)">
<path d="M225.356 116.397L119 24.9156L12.6436 116.397L7.06543 110.075L119 13.3875L230.934 110.075L225.356 116.397Z" fill="#FCD462"/>
<path d="M123.462 0.371826H114.909V24.9156H123.462V0.371826Z" fill="#FCD462"/>
<path d="M236.141 108.588H2.23145V238H236.141V108.588Z" fill="#A88DE5"/>
<path d="M20.8254 119.744H10.041V227.588H20.8254V119.744Z" fill="#5A27CE"/>
<path d="M46.8566 119.744H36.0723V227.588H46.8566V119.744Z" fill="#5A27CE"/>
<path d="M72.5158 119.744H61.7314V227.588H72.5158V119.744Z" fill="#5A27CE"/>
<path d="M98.5471 119.744H87.7627V227.588H98.5471V119.744Z" fill="#5A27CE"/>
<path d="M124.578 119.744H113.794V227.588H124.578V119.744Z" fill="#5A27CE"/>
<path d="M150.238 119.744H139.453V227.588H150.238V119.744Z" fill="#5A27CE"/>
<path d="M176.269 119.744H165.484V227.588H176.269V119.744Z" fill="#5A27CE"/>
<path d="M202.3 119.744H191.516V227.588H202.3V119.744Z" fill="#5A27CE"/>
<path d="M228.331 119.744H217.547V227.588H228.331V119.744Z" fill="#5A27CE"/>
<path d="M63.1479 145.257C94.898 145.257 120.637 119.518 120.637 87.7684C120.637 56.0182 94.898 30.2797 63.1479 30.2797C31.3977 30.2797 5.65918 56.0182 5.65918 87.7684C5.65918 119.518 31.3977 145.257 63.1479 145.257Z" fill="#6CF5C2"/>
<path d="M94.9051 119.158C112.444 101.619 112.525 73.2652 95.0871 55.8277C77.6491 38.3903 49.2949 38.4728 31.7564 56.0119C14.2178 73.5511 14.1363 101.905 31.5744 119.343C49.0124 136.78 77.3665 136.698 94.9051 119.158Z" fill="#FDFEFF"/>
<path fill-rule="evenodd" clip-rule="evenodd" d="M88.2994 54.0104C97.8022 62.1669 103.804 74.1469 103.804 87.5C103.804 92.8545 102.839 97.9879 101.07 102.743C98.0807 110.778 92.7965 117.732 85.994 122.842C78.9888 128.104 70.3745 131.41 61 131.928C61.8599 131.976 62.7261 132 63.598 132C73.9768 132 83.5431 128.586 91.1904 122.842C97.9929 117.732 103.277 110.779 106.266 102.743C108.035 97.9879 109 92.8545 109 87.5C109 74.1469 102.999 62.1669 93.4959 54.0104C85.5092 47.1551 75.0482 43 63.598 43C62.7261 43 61.8599 43.0239 61 43.0718C71.4313 43.6488 80.9212 47.6771 88.2994 54.0104Z" fill="#C8C8C8"/>
<path d="M61.8477 95.7891H56.7617C56.7799 94.0391 56.9349 92.6081 57.2266 91.4961C57.5365 90.3659 58.0378 89.3359 58.7305 88.4062C59.4232 87.4766 60.3438 86.4193 61.4922 85.2344C62.3307 84.3776 63.0964 83.5755 63.7891 82.8281C64.5 82.0625 65.0742 81.2422 65.5117 80.3672C65.9492 79.474 66.168 78.4076 66.168 77.168C66.168 75.9102 65.9401 74.8255 65.4844 73.9141C65.0469 73.0026 64.3906 72.3008 63.5156 71.8086C62.6589 71.3164 61.5924 71.0703 60.3164 71.0703C59.2591 71.0703 58.2565 71.2617 57.3086 71.6445C56.3607 72.0273 55.5951 72.6198 55.0117 73.4219C54.4284 74.2057 54.1276 75.2357 54.1094 76.5117H49.0508C49.0872 74.4518 49.5977 72.6836 50.582 71.207C51.5846 69.7305 52.9336 68.6003 54.6289 67.8164C56.3242 67.0326 58.2201 66.6406 60.3164 66.6406C62.6315 66.6406 64.6003 67.0599 66.2227 67.8984C67.8633 68.737 69.112 69.9401 69.9688 71.5078C70.8255 73.0573 71.2539 74.8984 71.2539 77.0312C71.2539 78.6719 70.9167 80.1849 70.2422 81.5703C69.5859 82.9375 68.7383 84.2227 67.6992 85.4258C66.6602 86.6289 65.5573 87.7773 64.3906 88.8711C63.388 89.8008 62.7135 90.849 62.3672 92.0156C62.0208 93.1823 61.8477 94.4401 61.8477 95.7891ZM56.543 104.457C56.543 103.637 56.7982 102.944 57.3086 102.379C57.819 101.814 58.5573 101.531 59.5234 101.531C60.5078 101.531 61.2552 101.814 61.7656 102.379C62.276 102.944 62.5312 103.637 62.5312 104.457C62.5312 105.241 62.276 105.915 61.7656 106.48C61.2552 107.046 60.5078 107.328 59.5234 107.328C58.5573 107.328 57.819 107.046 57.3086 106.48C56.7982 105.915 56.543 105.241 56.543 104.457Z" fill="#837683"/>
</g>
<defs>
<clipPath id="clip0_1_185">
<rect width="238" height="238" fill="white"/>
</clipPath>
</defs>
</svg>
