<svg width="27" height="27" viewBox="0 0 27 27" fill="none" xmlns="http://www.w3.org/2000/svg">
<g id="ion:help-circle-outline">
<path id="Vector" d="M13.5 4.21875C11.6643 4.21875 9.86991 4.76309 8.34362 5.78292C6.81732 6.80276 5.62772 8.25229 4.92525 9.94822C4.22277 11.6441 4.03897 13.5103 4.39709 15.3107C4.75521 17.1111 5.63916 18.7648 6.93717 20.0628C8.23518 21.3608 9.88894 22.2448 11.6893 22.6029C13.4897 22.961 15.3559 22.7772 17.0518 22.0748C18.7477 21.3723 20.1972 20.1827 21.2171 18.6564C22.2369 17.1301 22.7813 15.3357 22.7813 13.5C22.7813 11.0385 21.8034 8.67774 20.0628 6.93717C18.3223 5.19659 15.9615 4.21875 13.5 4.21875Z" stroke="#7E7E7E" stroke-width="1.5" stroke-miterlimit="10"/>
<path id="Vector_2" d="M10.5469 10.6675C10.5469 10.6675 10.5912 9.7447 11.5789 8.94999C12.1648 8.47802 12.8672 8.34144 13.5 8.33194C14.0764 8.32456 14.5911 8.42001 14.899 8.56661C15.4264 8.81763 16.4531 9.4304 16.4531 10.7335C16.4531 12.1046 15.5566 12.7274 14.5352 13.4124C13.5137 14.0974 13.2363 14.8409 13.2363 15.6093" stroke="#7E7E7E" stroke-width="1.5" stroke-miterlimit="10" stroke-linecap="round"/>
<path id="Vector_3" d="M13.1836 19.4062C13.7661 19.4062 14.2383 18.9341 14.2383 18.3516C14.2383 17.7691 13.7661 17.2969 13.1836 17.2969C12.6011 17.2969 12.1289 17.7691 12.1289 18.3516C12.1289 18.9341 12.6011 19.4062 13.1836 19.4062Z" fill="#7E7E7E"/>
</g>
</svg>
