<svg width="18" height="23" viewBox="0 0 18 23" fill="none" xmlns="http://www.w3.org/2000/svg">
<path d="M9.0026 17.4166C8.42797 17.4166 7.87687 17.1883 7.47054 16.782C7.06421 16.3757 6.83594 15.8246 6.83594 15.2499C6.83594 14.0474 7.8001 13.0833 9.0026 13.0833C9.57724 13.0833 10.1283 13.3115 10.5347 13.7179C10.941 14.1242 11.1693 14.6753 11.1693 15.2499C11.1693 15.8246 10.941 16.3757 10.5347 16.782C10.1283 17.1883 9.57724 17.4166 9.0026 17.4166ZM15.5026 20.6666V9.83325H2.5026V20.6666H15.5026ZM15.5026 7.66659C16.0772 7.66659 16.6283 7.89486 17.0347 8.30119C17.441 8.70752 17.6693 9.25862 17.6693 9.83325V20.6666C17.6693 21.2412 17.441 21.7923 17.0347 22.1987C16.6283 22.605 16.0772 22.8333 15.5026 22.8333H2.5026C1.92797 22.8333 1.37687 22.605 0.970539 22.1987C0.564211 21.7923 0.335938 21.2412 0.335938 20.6666V9.83325C0.335938 8.63075 1.3001 7.66659 2.5026 7.66659H3.58594V5.49992C3.58594 4.06333 4.15662 2.68558 5.17244 1.66976C6.18826 0.653935 7.56602 0.083252 9.0026 0.083252C9.71393 0.083252 10.4183 0.223358 11.0755 0.495571C11.7327 0.767784 12.3298 1.16677 12.8328 1.66976C13.3358 2.17274 13.7347 2.76987 14.007 3.42705C14.2792 4.08423 14.4193 4.78859 14.4193 5.49992V7.66659H15.5026ZM9.0026 2.24992C8.14065 2.24992 7.314 2.59233 6.70451 3.20182C6.09501 3.81132 5.7526 4.63797 5.7526 5.49992V7.66659H12.2526V5.49992C12.2526 4.63797 11.9102 3.81132 11.3007 3.20182C10.6912 2.59233 9.86456 2.24992 9.0026 2.24992Z" fill="#018353"/>
</svg>
