<svg width="19" height="17" viewBox="0 0 19 17" fill="none" xmlns="http://www.w3.org/2000/svg">
<path d="M11.625 12.25V14.125C11.625 14.6223 11.4384 15.0992 11.1063 15.4508C10.7742 15.8025 10.3238 16 9.85417 16H2.77083C2.30118 16 1.85076 15.8025 1.51867 15.4508C1.18657 15.0992 1 14.6223 1 14.125V2.875C1 2.37772 1.18657 1.90081 1.51867 1.54917C1.85076 1.19754 2.30118 1 2.77083 1H9.5C10.4779 1 11.625 1.83953 11.625 2.875V4.75M14.4583 12.25L18 8.5L14.4583 4.75M5.95833 8.5H17.2917" stroke="#018353" stroke-width="1.6" stroke-linecap="round" stroke-linejoin="round"/>
</svg>
