<svg width="104" height="100" viewBox="0 0 104 100" fill="none" xmlns="http://www.w3.org/2000/svg">
<g filter="url(#filter0_d_1_31768)">
<path d="M0 10C0 4.47716 4.47715 0 10 0H100V100H10C4.47716 100 0 95.5229 0 90V10Z" fill="#FAB735"/>
<circle cx="49.6102" cy="49.6102" r="30.6102" fill="#FAB735"/>
<mask id="mask0_1_31768" style="mask-type:alpha" maskUnits="userSpaceOnUse" x="32" y="32" width="35" height="35">
<rect x="32.6016" y="32.604" width="34.0113" height="34.0113" fill="#D9D9D9"/>
</mask>
<g mask="url(#mask0_1_31768)">
<path d="M60.8799 62.3632C57.833 62.3632 54.8632 61.6839 51.9703 60.3254C49.0765 58.9678 46.5139 57.1727 44.2823 54.9402C42.0499 52.7087 40.2548 50.1461 38.8972 47.2523C37.5387 44.3594 36.8594 41.3896 36.8594 38.3427C36.8594 37.9176 37.0011 37.5633 37.2845 37.2799C37.5679 36.9965 37.9222 36.8547 38.3474 36.8547H44.0868C44.4174 36.8547 44.7127 36.961 44.9725 37.1736C45.2323 37.3862 45.3858 37.6578 45.4331 37.9884L46.3542 42.9484C46.4014 43.2791 46.3958 43.58 46.3372 43.8511C46.2777 44.1232 46.1416 44.3656 45.9291 44.5781L42.4925 48.0501C43.4845 49.7507 44.7306 51.345 46.2309 52.833C47.7302 54.321 49.3774 55.6082 51.1725 56.6947L54.5027 53.3644C54.7153 53.1518 54.9931 52.9922 55.336 52.8854C55.678 52.7796 56.0144 52.7503 56.345 52.7975L61.2341 53.7895C61.5648 53.8604 61.8364 54.0196 62.049 54.2671C62.2616 54.5156 62.3678 54.8051 62.3678 55.1358V60.8752C62.3678 61.3004 62.2261 61.6546 61.9427 61.9381C61.6593 62.2215 61.305 62.3632 60.8799 62.3632ZM41.1462 45.3576L43.4845 43.0193L42.8822 39.689H39.7291C39.8472 40.6574 40.0125 41.614 40.2251 42.5587C40.4376 43.5035 40.7447 44.4364 41.1462 45.3576ZM53.8296 58.0409C54.7507 58.4425 55.6898 58.7613 56.6469 58.9975C57.603 59.2337 58.5652 59.3872 59.5336 59.4581V56.3404L56.2033 55.6672L53.8296 58.0409Z" fill="white"/>
</g>
</g>
<defs>
<filter id="filter0_d_1_31768" x="-4" y="-4" width="108" height="108" filterUnits="userSpaceOnUse" color-interpolation-filters="sRGB">
<feFlood flood-opacity="0" result="BackgroundImageFix"/>
<feColorMatrix in="SourceAlpha" type="matrix" values="0 0 0 0 0 0 0 0 0 0 0 0 0 0 0 0 0 0 127 0" result="hardAlpha"/>
<feOffset/>
<feGaussianBlur stdDeviation="2"/>
<feComposite in2="hardAlpha" operator="out"/>
<feColorMatrix type="matrix" values="0 0 0 0 0 0 0 0 0 0 0 0 0 0 0 0 0 0 0.25 0"/>
<feBlend mode="normal" in2="BackgroundImageFix" result="effect1_dropShadow_1_31768"/>
<feBlend mode="normal" in="SourceGraphic" in2="effect1_dropShadow_1_31768" result="shape"/>
</filter>
</defs>
</svg>
