<svg width="211" height="211" viewBox="0 0 211 211" fill="none" xmlns="http://www.w3.org/2000/svg">
<path d="M171.438 102.203L170.679 111.83C170.127 112.902 169.29 113.801 168.261 114.429C167.232 115.057 166.049 115.39 164.844 115.391H131.875V89.0156H164.844C166.049 89.0166 167.232 89.3493 168.261 89.9773C169.29 90.6053 170.127 91.5045 170.679 92.5762C170.692 92.5893 170.701 92.6049 170.707 92.622C170.713 92.6391 170.714 92.6573 170.712 92.6752L171.438 102.203Z" fill="#5A27CE"/>
<path d="M158.25 89.0156H145.062V115.391H158.25V89.0156Z" fill="#B7B7A4"/>
<path d="M52.75 164.844H26.375C22.8775 164.844 19.5232 166.233 17.05 168.706C14.5769 171.179 13.1875 174.534 13.1875 178.031V184.625C13.1875 189.871 15.2716 194.903 18.9813 198.612C22.691 202.322 27.7224 204.406 32.9688 204.406H178.031C185.026 204.406 191.735 201.627 196.681 196.681C201.627 191.735 204.406 185.026 204.406 178.031V39.5625C204.406 32.5674 201.627 25.8588 196.681 20.9126C191.735 15.9663 185.026 13.1875 178.031 13.1875H85.7188C80.4724 13.1875 75.441 15.2716 71.7313 18.9813C68.0216 22.691 65.9375 27.7224 65.9375 32.9688V39.5625H105.5C122.113 39.5625 138.046 46.1621 149.794 57.9095C161.541 69.6569 168.141 85.5898 168.141 102.203C168.141 118.816 161.541 134.749 149.794 146.497C138.046 158.244 122.113 164.844 105.5 164.844H52.75Z" fill="#D9D9D9"/>
<path d="M184.625 65.9375C183.751 65.9375 182.912 65.5902 182.294 64.9719C181.675 64.3536 181.328 63.515 181.328 62.6406V46.1562H187.922V62.6406C187.922 63.515 187.575 64.3536 186.956 64.9719C186.338 65.5902 185.499 65.9375 184.625 65.9375Z" fill="#979DAC"/>
<path d="M161.547 36.925H176.617V32.9688H187.922V48.7938H176.617V52.75H161.547L166.571 44.8375L161.547 36.925Z" fill="#FCD462"/>
<path d="M174.734 171.438H135.172V204.406H174.734V171.438Z" fill="#5A27CE"/>
<path d="M154.953 158.25L128.578 171.438H181.328L154.953 158.25Z" fill="#2D3142"/>
<path d="M154.953 184.625C156.702 184.625 158.379 185.32 159.616 186.556C160.852 187.793 161.547 189.47 161.547 191.219V204.406H148.359V191.219C148.359 189.47 149.054 187.793 150.291 186.556C151.527 185.32 153.204 184.625 154.953 184.625Z" fill="#A88DE5"/>
<path d="M59.3438 79.125H26.375C21.1287 79.125 16.0972 77.0409 12.3875 73.3312C8.67784 69.6215 6.59375 64.5901 6.59375 59.3438V52.75H92.3125L80.4437 68.575C77.987 71.8507 74.8013 74.5094 71.139 76.3405C67.4767 78.1717 63.4383 79.125 59.3438 79.125Z" fill="#5A27CE"/>
<path d="M65.9375 52.75H19.7812V39.5625H52.75L65.9375 52.75Z" fill="#A88DE5"/>
<path d="M26.375 62.6406H19.7812V69.2344H26.375V62.6406Z" fill="#FCD462"/>
<path d="M39.5625 62.6406H32.9688V69.2344H39.5625V62.6406Z" fill="#FCD462"/>
<path d="M52.75 62.6406H46.1562V69.2344H52.75V62.6406Z" fill="#FCD462"/>
<path d="M65.9375 62.6406H59.3438V69.2344H65.9375V62.6406Z" fill="#FCD462"/>
<path d="M39.5625 19.7812H32.9688V39.5625H39.5625V19.7812Z" fill="#979DAC"/>
<path d="M13.1875 10.55H28.2575V6.59375H39.5625V22.4188H28.2575V26.375H13.1875L18.2119 18.4625L13.1875 10.55Z" fill="#FCD462"/>
<path d="M108.797 158.25H75.8281C70.5818 158.25 65.5504 156.166 61.8407 152.456C58.131 148.747 56.0469 143.715 56.0469 138.469V131.875H141.766L129.897 147.7C127.44 150.976 124.254 153.634 120.592 155.466C116.93 157.297 112.891 158.25 108.797 158.25Z" fill="#5A27CE"/>
<path d="M115.391 131.875H69.2344V118.688H102.203L115.391 131.875Z" fill="#A88DE5"/>
<path d="M75.8281 141.766H69.2344V148.359H75.8281V141.766Z" fill="#FCD462"/>
<path d="M89.0156 141.766H82.4219V148.359H89.0156V141.766Z" fill="#FCD462"/>
<path d="M102.203 141.766H95.6094V148.359H102.203V141.766Z" fill="#FCD462"/>
<path d="M115.391 141.766H108.797V148.359H115.391V141.766Z" fill="#FCD462"/>
<path d="M89.0156 98.9062H82.4219V118.688H89.0156V98.9062Z" fill="#979DAC"/>
<path d="M62.6406 89.675H77.7106V85.7188H89.0156V101.544H77.7106V105.5H62.6406L67.6651 97.5875L62.6406 89.675Z" fill="#FCD462"/>
</svg>
