<svg width="27" height="36" viewBox="0 0 27 36" fill="none" xmlns="http://www.w3.org/2000/svg">
<rect x="0.970313" y="2.61045" width="25.0275" height="32.3579" rx="1.6" stroke="#018353" stroke-width="0.8"/>
<path d="M5.125 0.632324V5.36917" stroke="#018353" stroke-linecap="round"/>
<path d="M21.8359 0.632324V5.36917" stroke="#018353" stroke-linecap="round"/>
<path d="M13.4851 11.6843C17.261 11.6843 20.3218 14.8654 20.3218 18.7896C20.3218 22.7138 17.261 25.8949 13.4851 25.8949C9.70923 25.8949 6.64844 22.7138 6.64844 18.7896C6.64844 14.8654 9.70923 11.6843 13.4851 11.6843ZM13.4851 12.6755C11.9249 12.6755 10.4285 13.3197 9.32524 14.4663C8.22197 15.6129 7.60216 17.168 7.60216 18.7896C7.60216 20.4111 8.22197 21.9663 9.32524 23.1129C10.4285 24.2595 11.9249 24.9037 13.4851 24.9037C15.0454 24.9037 16.5418 24.2595 17.645 23.1129C18.7483 21.9663 19.3681 20.4111 19.3681 18.7896C19.3681 17.168 18.7483 15.6129 17.645 14.4663C16.5418 13.3197 15.0454 12.6755 13.4851 12.6755ZM12.8493 15.6498C13.1125 15.6498 13.3258 15.8722 13.3258 16.1457V19.6159H16.6649C16.7882 19.6208 16.905 19.6751 16.9906 19.7675C17.0762 19.8599 17.124 19.9832 17.124 20.1115C17.124 20.2398 17.0762 20.3631 16.9906 20.4555C16.905 20.5479 16.7882 20.6023 16.6649 20.6071H12.8493C12.7228 20.6071 12.6014 20.5549 12.5119 20.4619C12.4224 20.3688 12.3721 20.2427 12.3721 20.1112V16.1464C12.3721 15.8722 12.5854 15.6498 12.8493 15.6498Z" fill="#018353"/>
</svg>
