<svg width="21" height="21" viewBox="0 0 21 21" fill="none" xmlns="http://www.w3.org/2000/svg">
<g id="fi-rr-search" clip-path="url(#clip0_1_2363)">
<path id="Vector" d="M20.7433 19.507L15.5204 14.2842C16.9437 12.5434 17.6435 10.3222 17.4751 8.08003C17.3066 5.83782 16.2828 3.74613 14.6153 2.23762C12.9479 0.72911 10.7645 -0.0808056 8.51662 -0.0246027C6.26879 0.0316001 4.12855 0.949622 2.5386 2.53958C0.948645 4.12953 0.0306236 6.26977 -0.0255793 8.5176C-0.0817821 10.7654 0.728134 12.9489 2.23664 14.6163C3.74515 16.2837 5.83684 17.3076 8.07905 17.476C10.3213 17.6445 12.5425 16.9447 14.2832 15.5214L19.5061 20.7443C19.6711 20.9037 19.8921 20.9919 20.1215 20.9899C20.351 20.9879 20.5704 20.8959 20.7327 20.7336C20.8949 20.5714 20.9869 20.3519 20.9889 20.1225C20.9909 19.8931 20.9027 19.6721 20.7433 19.507ZM8.74969 15.7507C7.36522 15.7507 6.01184 15.3401 4.8607 14.571C3.70955 13.8018 2.81234 12.7085 2.28253 11.4294C1.75272 10.1504 1.61409 8.7429 1.88419 7.38503C2.15429 6.02716 2.82097 4.77988 3.79994 3.80092C4.77891 2.82195 6.02619 2.15526 7.38406 1.88517C8.74192 1.61507 10.1494 1.75369 11.4285 2.28351C12.7076 2.81332 13.8008 3.71053 14.57 4.86167C15.3391 6.01282 15.7497 7.3662 15.7497 8.75066C15.7476 10.6065 15.0094 12.3858 13.6971 13.6981C12.3848 15.0104 10.6056 15.7486 8.74969 15.7507Z" fill="#7E7E7E"/>
</g>
<defs>
<clipPath id="clip0_1_2363">
<rect width="21" height="21" fill="white"/>
</clipPath>
</defs>
</svg>
