<svg width="33" height="36" viewBox="0 0 33 36" fill="none" xmlns="http://www.w3.org/2000/svg">
<path d="M1.54324 32.2406C1.55551 32.2322 2.81867 31.5231 3.8202 32.2153C4.38433 32.6036 5.20191 32.7302 6.01949 32.7302C7.41347 32.7302 8.82788 32.363 9.06498 32.2997C9.07315 32.2997 9.07724 32.2955 9.08542 32.2913C9.10177 32.287 9.11403 32.2786 9.13038 32.2744C9.15491 32.2659 9.17944 32.2575 9.19988 32.2448C9.20397 32.2406 9.20805 32.2406 9.21214 32.2406C9.22441 32.2322 10.4876 31.5231 11.4891 32.2153C12.0532 32.6036 12.8708 32.7302 13.6884 32.7302C15.0824 32.7302 16.4968 32.363 16.7339 32.2997C16.7421 32.2997 16.7461 32.2955 16.7543 32.2913C16.7707 32.287 16.7829 32.2786 16.7993 32.2744C16.8238 32.2659 16.8483 32.2575 16.8688 32.2448C16.8729 32.2406 16.877 32.2406 16.881 32.2406C16.8933 32.2322 18.1565 31.5231 19.158 32.2153C19.7221 32.6036 20.5397 32.7302 21.3573 32.7302C22.7513 32.7302 24.1657 32.363 24.4028 32.2997C24.4109 32.2997 24.415 32.2955 24.4232 32.2913C24.4396 32.287 24.4518 32.2786 24.4682 32.2744C24.4927 32.2659 24.5172 32.2575 24.5377 32.2448C24.5418 32.2406 24.5459 32.2406 24.5499 32.2406C24.5581 32.2364 25.11 31.9283 25.7722 31.9156C25.7845 31.9198 25.7967 31.9283 25.809 31.9325C25.8785 31.9578 25.948 31.9705 26.0175 31.9705C26.0706 31.9705 26.1197 31.9578 26.1687 31.9452C26.3895 31.9874 26.6143 32.0676 26.8269 32.2153C27.391 32.6036 28.2086 32.7302 29.0262 32.7302C30.4202 32.7302 31.8346 32.363 32.0717 32.2997C32.3987 32.2111 32.5949 31.865 32.5091 31.5273C32.4232 31.1896 32.088 30.987 31.761 31.0757C30.5469 31.4049 28.319 31.7215 27.5055 31.1601C27.2888 31.0124 27.0681 30.9026 26.8473 30.8224L30.1504 21.3173C30.2607 21.0049 30.1136 20.6546 29.8192 20.5238L25.7845 18.7046V11.5462C25.7845 11.1959 25.5106 10.9131 25.1713 10.9131H19.6526V8.21183C19.6526 7.86151 19.3787 7.57871 19.0395 7.57871H17.1917V6.91184H24.0022C24.3415 6.91184 24.6153 6.62904 24.6153 6.27872V1.26446C24.6153 0.914139 24.3415 0.631348 24.0022 0.631348H16.5785C16.2392 0.631348 15.9654 0.914139 15.9654 1.26446V6.27872V7.57871H14.1217C13.7824 7.57871 13.5085 7.86151 13.5085 8.21183V10.9131H7.98986C7.65056 10.9131 7.37668 11.1959 7.37668 11.5462V18.7046L3.34192 20.5238C3.04759 20.6588 2.90043 21.0049 3.0108 21.3173L6.53048 31.4471C5.70064 31.502 4.91576 31.4471 4.50288 31.1601C2.86363 30.0331 1.01999 31.0926 0.942322 31.1348C0.647994 31.3078 0.545796 31.6919 0.7134 31.9958C0.876916 32.2997 1.24891 32.4094 1.54324 32.2406ZM17.1917 1.89758H23.389V5.64561H17.1917V1.89758ZM14.7349 8.84494H18.4222V10.9131H14.7349V8.84494ZM8.59896 12.1793H14.1176H19.0313H24.5499V18.1517L16.8238 14.6611H16.8197C16.7461 14.6274 16.6644 14.6105 16.5785 14.6105C16.4927 14.6105 16.4109 14.6274 16.3373 14.6611H16.3333L8.59896 18.1475V12.1793ZM4.35572 21.4439L8.23105 19.6965L15.9654 16.2102V25.2257C15.9654 25.576 16.2392 25.8588 16.5785 25.8588C16.9178 25.8588 17.1917 25.576 17.1917 25.2257V16.2102L24.926 19.6965L28.8014 21.4439L25.6005 30.6536C24.8484 30.7 24.2433 30.9786 24.0267 31.0926C22.8003 31.4176 20.6337 31.713 19.8366 31.1643C18.3731 30.1556 16.7421 30.8942 16.3619 31.0926C15.1355 31.4176 12.9689 31.713 12.1718 31.1643C10.7083 30.1556 9.07724 30.8942 8.69707 31.0926C8.42318 31.1643 8.10023 31.2361 7.75685 31.2952C7.75276 31.2361 7.74459 31.1812 7.72415 31.1221L4.35572 21.4439ZM31.7569 33.7136C30.5387 34.0429 28.3108 34.3552 27.5014 33.7981C26.0379 32.7893 24.4069 33.5279 24.0267 33.7263C22.7962 34.0471 20.6296 34.3425 19.8366 33.7981C18.3731 32.7893 16.7421 33.5279 16.3619 33.7263C15.1355 34.0471 12.9648 34.3425 12.1718 33.7981C10.7083 32.7893 9.07724 33.5279 8.69707 33.7263C7.4707 34.0471 5.30002 34.3425 4.50697 33.7981C2.87181 32.6711 1.02408 33.7305 0.94641 33.7727C0.652082 33.9458 0.549884 34.3299 0.717488 34.6338C0.881004 34.9377 1.25709 35.0474 1.55142 34.8786C1.56368 34.8701 2.82684 34.161 3.82838 34.8533C4.39251 35.2416 5.21009 35.3682 6.02767 35.3682C7.42164 35.3682 8.83606 35.001 9.07315 34.9377C9.08133 34.9377 9.08542 34.9334 9.09359 34.9292C9.10995 34.925 9.12221 34.9166 9.13856 34.9123C9.16309 34.9039 9.18353 34.8955 9.20805 34.8828C9.21214 34.8786 9.21623 34.8786 9.22032 34.8786C9.23258 34.8701 10.4957 34.161 11.4973 34.8533C12.0614 35.2416 12.879 35.3682 13.6966 35.3682C15.0905 35.3682 16.505 35.001 16.7421 34.9377C16.7502 34.9377 16.7543 34.9334 16.7625 34.9292C16.7788 34.925 16.7911 34.9166 16.8075 34.9123C16.832 34.9039 16.8524 34.8955 16.877 34.8828C16.881 34.8786 16.8851 34.8786 16.8892 34.8786C16.9015 34.8701 18.1646 34.161 19.1662 34.8533C19.7303 35.2416 20.5479 35.3682 21.3655 35.3682C22.7594 35.3682 24.1739 35.001 24.411 34.9377C24.4191 34.9377 24.4232 34.9334 24.4314 34.9292C24.4477 34.925 24.46 34.9166 24.4764 34.9123C24.5009 34.9039 24.5213 34.8955 24.5459 34.8828C24.5499 34.8786 24.554 34.8786 24.5581 34.8786C24.5704 34.8701 25.8335 34.161 26.8351 34.8533C27.3992 35.2416 28.2168 35.3682 29.0344 35.3682C30.4283 35.3682 31.8427 35.001 32.0798 34.9377C32.4069 34.849 32.6031 34.5029 32.5173 34.1653C32.4191 33.8276 32.0839 33.6292 31.7569 33.7136Z" fill="#018353"/>
</svg>
