<svg width="62" height="62" viewBox="0 0 62 62" fill="none" xmlns="http://www.w3.org/2000/svg">
<path d="M46.4808 34.1916C54.3834 34.1916 60.7898 27.7853 60.7898 19.8827C60.7898 11.9801 54.3834 5.57373 46.4808 5.57373C38.5782 5.57373 32.1719 11.9801 32.1719 19.8827C32.1719 27.7853 38.5782 34.1916 46.4808 34.1916Z" fill="#90CFF1"/>
<path d="M35.9876 19.8827C35.9876 12.6328 41.3296 6.71845 48.3887 5.76452C47.8163 5.76452 47.0532 5.57373 46.4808 5.57373C38.6586 5.57373 32.1719 12.0605 32.1719 19.8827C32.1719 27.7049 38.6586 34.1916 46.4808 34.1916C47.0532 34.1916 47.8163 34.1916 48.3887 34.0009C41.3296 33.0469 35.9876 27.1326 35.9876 19.8827Z" fill="#70B7E6"/>
<path d="M46.4815 30.3761C52.2768 30.3761 56.9748 25.6781 56.9748 19.8829C56.9748 14.0876 52.2768 9.38965 46.4815 9.38965C40.6863 9.38965 35.9883 14.0876 35.9883 19.8829C35.9883 25.6781 40.6863 30.3761 46.4815 30.3761Z" fill="#EEF2FA"/>
<path d="M39.804 19.8829C39.804 14.7317 43.4289 10.5344 48.3894 9.58043C47.817 9.38965 47.0539 9.38965 46.4815 9.38965C40.7579 9.38965 35.9883 14.1593 35.9883 19.8829C35.9883 25.6065 40.7579 30.3761 46.4815 30.3761C47.0539 30.3761 47.817 30.3761 48.3894 30.1853C43.4289 29.2314 39.804 25.0341 39.804 19.8829Z" fill="#D5E5F2"/>
<path d="M46.4813 5.57373H45.5273V9.38945C45.5273 9.96181 45.9089 10.3434 46.4813 10.3434C47.0536 10.3434 47.4352 9.96181 47.4352 9.38945V5.57373H46.4813ZM46.4813 29.422C45.9089 29.422 45.5273 29.8036 45.5273 30.3759V34.1916H47.4352V30.3759C47.4352 29.8036 47.0536 29.422 46.4813 29.422ZM52.3956 6.90923L51.6325 8.43552C51.4417 8.81709 51.6325 9.38945 52.0141 9.77102C52.2049 9.77102 52.3956 9.96181 52.3956 9.96181C52.7772 9.96181 52.968 9.77102 53.1588 9.38945L54.1127 7.86316C53.5404 7.48159 53.1588 7.10002 52.3956 6.90923ZM57.7377 14.5407L59.2639 13.5867C59.0732 13.0144 58.6916 12.442 58.31 11.8697L56.7837 12.8236C56.4022 13.0144 56.2114 13.5867 56.4022 14.1591C56.5929 14.5407 56.9745 14.7315 57.1653 14.7315C57.3561 14.7315 57.5469 14.5407 57.7377 14.5407ZM60.7902 18.9288H56.9745C56.4022 18.738 56.0206 19.3103 56.0206 19.8827C56.0206 20.455 56.4022 20.8366 56.9745 20.8366H60.7902V18.9288ZM54.1127 23.6984H48.3891C48.1983 23.6984 47.8168 23.5076 47.626 23.3168C47.4352 23.1261 47.4352 22.7445 47.4352 22.5537L48.9615 14.9222C48.9615 14.3499 49.5339 14.1591 49.9154 14.1591C50.4878 14.3499 50.8694 14.7315 50.6786 15.3038L49.5339 21.7905H54.1127C54.6851 21.7905 55.0666 22.1721 55.0666 22.7445C55.0666 23.3168 54.6851 23.6984 54.1127 23.6984Z" fill="#004463"/>
<path d="M52.2045 25.6063C51.6321 25.6063 51.2505 25.2248 51.2505 24.6524V18.9288C51.2505 18.3565 51.6321 17.9749 52.2045 17.9749C52.7768 17.9749 53.1584 18.3565 53.1584 18.9288V24.6524C53.1584 25.2248 52.7768 25.6063 52.2045 25.6063ZM44.573 25.6063H38.8494C38.4679 25.6063 38.0863 25.4156 37.8955 25.034C37.7047 24.6524 37.8955 24.2708 38.0863 24.0801L43.0467 19.3104C43.4283 18.9288 43.6191 18.5473 43.6191 17.9749C43.6191 16.8302 42.856 16.067 41.7112 16.067C40.5665 16.067 39.8034 16.8302 39.8034 17.9749C39.8034 18.5473 39.4218 18.9288 38.8494 18.9288C38.2771 18.9288 37.8955 18.3565 37.8955 17.9749C37.8955 15.8763 39.6126 14.1592 41.7112 14.1592C43.8099 14.1592 45.527 15.8763 45.527 17.9749C45.527 18.9288 45.1454 19.8828 44.3822 20.6459L41.1389 23.6985H44.573C45.1454 23.6985 45.527 24.0801 45.527 24.6524C45.527 25.2248 45.1454 25.6063 44.573 25.6063ZM57.7373 25.034C57.3557 24.8432 56.7833 25.034 56.4018 25.4156C56.211 25.7971 56.4018 26.3695 56.7833 26.7511L58.5004 27.705C58.882 27.1326 59.0728 26.5603 59.4543 25.9879L57.7373 25.034ZM53.54 30.1852C53.3492 29.8036 52.7768 29.6129 52.2045 29.8036C51.8229 29.9944 51.6321 30.5668 51.8229 31.1391L52.7768 32.8562C53.3492 32.6654 53.9215 32.2839 54.4939 31.9023L53.54 30.1852ZM40.9481 29.9944C40.5665 29.8036 39.9942 29.9944 39.6126 30.376L38.8494 31.9023C39.4218 32.2839 39.9942 32.4746 40.5665 32.8562L41.5204 31.1391C41.5204 30.7576 41.5205 30.1852 40.9481 29.9944ZM39.4218 9.58032C39.6126 9.96189 39.9942 10.1527 40.1849 10.1527C40.3757 10.1527 40.5665 10.1527 40.5665 9.96189C40.9481 9.7711 41.1389 9.19874 40.9481 8.62639L39.9942 7.1001C39.4218 7.29088 38.8494 7.67246 38.2771 8.05403L39.4218 9.58032ZM29.5009 32.4746H24.7313C24.1589 32.4746 23.7773 32.0931 23.7773 31.5207C23.7773 30.9484 24.1589 30.5668 24.7313 30.5668H29.5009C31.5996 30.5668 33.3166 28.8497 33.3166 26.7511V24.4616C33.3166 23.8893 33.6982 23.5077 34.2706 23.5077C34.8429 23.5077 35.2245 23.8893 35.2245 24.4616V26.7511C35.2245 29.8036 32.7443 32.4746 29.5009 32.4746Z" fill="#004463"/>
<path d="M12.9025 26.7511H10.0407C8.89596 26.7511 8.13281 25.988 8.13281 24.8432V23.8893C8.13281 22.7446 8.89596 21.9814 10.0407 21.9814H12.9025V26.7511Z" fill="#607D95"/>
<path d="M8.32422 25.7972H9.46894C10.0413 25.7972 10.4229 25.4156 10.4229 24.8432V21.9814H11.3768V26.7511H10.0413C9.27815 26.7511 8.70579 26.3695 8.32422 25.7972Z" fill="#4B6C85"/>
<path d="M30.4531 26.7511H33.3149C34.4596 26.7511 35.2228 25.988 35.2228 24.8432V23.8893C35.2228 22.7446 34.4596 21.9814 33.3149 21.9814H30.4531V26.7511Z" fill="#607D95"/>
<path d="M35.033 25.7972H33.8883C33.316 25.7972 32.9344 25.4156 32.9344 24.8432V21.9814H31.9805V26.7511H33.5068C34.0791 26.7511 34.6515 26.3695 35.033 25.7972Z" fill="#4B6C85"/>
<path d="M16.1443 39.5337L7.17733 42.5863C3.93396 43.731 1.64453 46.7836 1.64453 50.2177V57.2768H41.7096V50.2177C41.7096 46.7836 39.4202 43.731 36.1768 42.5863L27.2099 39.5337H16.1443Z" fill="#D5E5F2"/>
<path d="M20.9653 39.1108H16.3865L7.41952 42.1634C4.55772 43.1173 1.88672 46.3607 1.88672 49.7949V57.0447H5.13008V49.9856C5.13008 47.6962 6.84716 45.5976 8.9458 45.0252L12.5707 43.8805C14.097 43.3081 15.6233 43.6897 16.768 44.4528C17.1496 44.4528 18.1035 44.8344 18.2943 45.0252C19.2483 45.5976 20.5838 45.5976 21.5377 45.0252C23.2548 44.0713 25.5442 42.3542 25.5442 40.2556L24.9718 39.1108H20.9653ZM41.9518 56.8539V49.7949C41.9518 48.2686 41.5702 46.9331 40.8071 45.7884C36.0374 46.3607 32.4125 50.3672 32.4125 55.3277V56.8539H41.9518Z" fill="#A88DE5"/>
<path d="M1.64453 57.0861V50.027C1.64453 48.5007 2.0261 47.1652 2.78925 46.0205C7.5589 46.5929 11.1838 50.5994 11.1838 55.5598V57.0861H1.64453Z" fill="#A88DE5"/>
<path d="M4.88852 50.027C4.88852 48.8823 5.27009 47.7376 6.03323 46.9744C5.0793 46.4021 3.93458 46.2113 2.98065 46.0205C2.21751 47.1652 1.83594 48.6915 1.83594 50.027V57.0861H5.0793L4.88852 50.027Z" fill="#A88DE5"/>
<path d="M16.1445 33.0469V39.3428C16.1445 42.3954 21.6773 44.8756 21.6773 44.8756C21.6773 44.8756 27.2101 42.3954 27.2101 39.3428V33.0469H16.1445Z" fill="#F0C9AE"/>
<path d="M16.1445 36.2904C17.6708 37.2443 19.7695 38.0074 21.6773 38.0074C23.776 38.0074 25.6838 37.4351 27.2101 36.2904V33.2378H16.1445V36.2904Z" fill="#E2B698"/>
<path d="M19.1971 39.5338V35.5273H16.1445V39.5338C16.1445 42.5864 21.6773 45.0666 21.6773 45.0666L23.2036 44.3035C21.6773 43.1588 19.1971 41.4417 19.1971 39.5338Z" fill="#E2B698"/>
<path d="M31.9787 15.4946V25.7971C31.9787 31.5207 27.3998 36.2903 21.4854 36.2903C15.7618 36.2903 10.9922 31.7114 10.9922 25.7971V15.4946" fill="#F0C9AE"/>
<path d="M14.4276 26.3694V24.4615C14.4276 23.126 15.5723 21.9813 16.9078 22.1721C20.9143 22.9352 25.1116 21.9813 28.355 19.5011C28.9273 19.1195 29.6905 19.5011 29.6905 20.0735V17.0209C29.6905 16.4485 28.9273 16.0669 28.355 16.4485C25.1116 18.9287 20.9143 19.8827 16.9078 19.1195L15.3815 18.7379C14.9999 18.7379 14.8092 18.9287 14.6184 18.9287L13.8552 19.3103V19.6919C13.6644 19.8827 13.6644 20.2642 13.6644 20.455C13.6644 21.409 12.9013 21.9813 12.1381 21.9813H11.375V25.9878C11.375 29.6128 13.2829 32.8561 16.1447 34.764C14.9999 32.093 14.4276 29.2312 14.4276 26.3694Z" fill="#E2B698"/>
<path d="M11.3756 21.9816H12.1388C13.0927 21.9816 13.6651 21.2185 13.6651 20.4553C13.6651 19.5014 14.4282 18.929 15.1913 18.929L16.9084 19.3106C20.9149 20.0737 25.1122 19.1198 28.3556 16.6396C28.9279 16.258 29.6911 16.6396 29.6911 17.2119V20.4553C29.6911 21.4092 30.4542 21.9816 31.2174 21.9816H31.9805L33.5068 16.8304C34.0792 14.3502 32.3621 12.2515 29.8819 12.2515V12.0607C29.8819 9.19893 27.4017 7.10028 24.5399 7.48185L13.4743 9.38971C10.9941 9.77129 9.27698 12.2515 9.65855 14.9225L11.3756 21.9816Z" fill="#8A6845"/>
<path d="M12.9019 14.9225C12.5203 12.2515 14.2374 9.77129 16.7176 9.38972L26.6385 7.67264C25.8754 7.48186 25.303 7.29107 24.5399 7.48186L13.4743 9.38972C10.9941 9.77129 9.27698 12.2515 9.65855 14.9225L11.1848 21.9816H12.1388C13.0927 21.9816 13.6651 21.2185 13.6651 20.4553C13.6651 20.0737 13.8558 19.883 13.8558 19.6922L12.9019 14.9225ZM32.9345 17.0212C32.9345 16.4488 32.1713 16.0672 31.599 16.4488C31.0266 16.8304 30.2634 17.2119 29.6911 17.5935V20.2645C29.6911 21.2185 30.4542 21.7908 31.2174 21.7908H31.9805L32.7437 19.1198V17.0212H32.9345Z" fill="#745539"/>
<path d="M32.9351 28.4683C32.3627 29.613 31.0272 30.5669 29.5009 30.5669H24.7313C24.1589 30.5669 23.7773 30.9485 23.7773 31.5208C23.7773 32.0932 24.1589 32.4748 24.7313 32.4748H29.5009C31.9811 32.4748 34.2706 30.7577 35.0337 28.4683H32.9351Z" fill="#004463"/>
</svg>
