<svg width="21" height="32" viewBox="0 0 21 32" fill="none" xmlns="http://www.w3.org/2000/svg">
<path d="M18.5247 4.15782H19.6349C19.9855 4.15782 20.2192 3.89466 20.2192 3.49992V0.868344C20.2192 0.473607 19.9855 0.210449 19.6349 0.210449H1.05308C0.702483 0.210449 0.46875 0.473607 0.46875 0.868344V3.49992C0.46875 3.89466 0.702483 4.15782 1.05308 4.15782H2.16332C2.33862 7.64466 3.91632 10.9999 6.60425 13.4341L9.40905 15.9999L6.60425 18.5657C3.91632 20.9999 2.33862 24.3552 2.16332 27.842H1.05308C0.702483 27.842 0.46875 28.1052 0.46875 28.4999V31.1315C0.46875 31.5262 0.702483 31.7894 1.05308 31.7894H19.6349C19.9855 31.7894 20.2192 31.5262 20.2192 31.1315V28.4999C20.2192 28.1052 19.9855 27.842 19.6349 27.842H18.5247C18.3494 24.3552 16.7717 20.9999 14.0837 18.5657L11.2789 15.9999L14.0837 13.4341C16.7717 10.9999 18.3494 7.64466 18.5247 4.15782ZM1.63742 1.52624H19.0506V2.84203H1.63742V1.52624ZM19.0506 30.4736H1.63742V29.1578H19.0506V30.4736ZM17.356 27.842H3.33198C3.50728 24.7499 4.90968 21.7894 7.36388 19.6183L10.344 16.8552L13.3241 19.6183C15.7783 21.8552 17.1807 24.7499 17.356 27.842ZM10.344 15.1447L7.36388 12.3815C4.90968 10.1447 3.50728 7.24992 3.33198 4.15782H17.356C17.1807 7.24992 15.7783 10.2104 13.3241 12.3815L10.344 15.1447Z" fill="#018353"/>
</svg>
