<svg width="62" height="62" viewBox="0 0 62 62" fill="none" xmlns="http://www.w3.org/2000/svg">
<g clip-path="url(#clip0_1_20533)">
<path d="M48.3787 0.804199H13.3682C6.17714 0.804199 0.347656 6.63368 0.347656 13.8247V48.8352C0.347656 56.0263 6.17714 61.8557 13.3682 61.8557H48.3787C55.5697 61.8557 61.3992 56.0263 61.3992 48.8352V13.8247C61.3992 6.63368 55.5697 0.804199 48.3787 0.804199Z" fill="#2CB742"/>
<path fill-rule="evenodd" clip-rule="evenodd" d="M30.0032 13.4672C27.0484 13.6201 24.1786 14.5084 21.6541 16.0515C19.1296 17.5946 17.0304 19.7437 15.547 22.3037C14.0636 24.8637 13.2429 27.7536 13.1594 30.7112C13.0759 33.6687 13.7323 36.6003 15.069 39.2399L13.1731 48.3793C13.1489 48.4929 13.1538 48.6107 13.1873 48.7219C13.2209 48.833 13.282 48.9339 13.365 49.0151C13.448 49.0963 13.5501 49.1552 13.662 49.1863C13.7739 49.2175 13.8918 49.2198 14.0048 49.1931L22.9653 47.0737C25.6292 48.3891 28.5803 49.0159 31.5489 48.8968C34.5175 48.7778 37.4089 47.9167 39.9589 46.3922C42.5089 44.8677 44.6362 42.7284 46.1464 40.1699C47.6566 37.6114 48.5015 34.7152 48.6039 31.746C48.6822 29.2965 48.2522 26.8574 47.341 24.5824C46.4297 22.3073 45.0571 20.2458 43.3095 18.5276C41.5619 16.8094 39.4774 15.472 37.1872 14.5995C34.8971 13.727 32.451 13.3384 30.0032 13.4582V13.4672ZM40.6986 41.0106C39.4111 42.3053 37.8795 43.3317 36.1925 44.0301C34.5054 44.7286 32.6965 45.0853 30.8706 45.0795C28.6976 45.0795 26.6229 44.5876 24.6913 43.6218L23.4393 43.0048L17.9485 44.3015L19.111 38.6944L18.4851 37.4872C17.4886 35.5356 16.9734 33.3739 16.9827 31.1826C16.9959 28.4408 17.8188 25.764 19.3481 23.4883C20.8774 21.2126 23.0449 19.4394 25.5785 18.3914C28.1122 17.3433 30.8989 17.0672 33.589 17.5975C36.279 18.1279 38.7524 19.4412 40.6986 21.3725C43.2985 23.9807 44.7585 27.5133 44.7585 31.196C44.7585 34.8787 43.2985 38.4113 40.6986 41.0195V41.0106Z" fill="white"/>
<path fill-rule="evenodd" clip-rule="evenodd" d="M39.4824 35.0278L36.0484 34.0441C35.8266 33.9794 35.5914 33.976 35.3678 34.0342C35.1442 34.0925 34.9406 34.2102 34.7786 34.375L33.938 35.2335C33.765 35.41 33.5435 35.5314 33.3017 35.5824C33.0598 35.6333 32.8082 35.6115 32.5787 35.5196C30.9511 34.8668 27.535 31.8263 26.6586 30.3061C26.5344 30.0901 26.4774 29.842 26.4949 29.5935C26.5124 29.345 26.6037 29.1074 26.757 28.911L27.4903 27.9631C27.6312 27.7814 27.7206 27.5651 27.7489 27.3369C27.7772 27.1087 27.7435 26.877 27.6513 26.6664L26.2026 23.3934C26.1218 23.2121 26 23.052 25.8467 22.926C25.6934 22.7999 25.5129 22.7112 25.3194 22.667C25.126 22.6227 24.9248 22.6241 24.732 22.671C24.5391 22.7179 24.3599 22.8091 24.2084 22.9373C23.2425 23.7422 22.1068 24.9762 21.9727 26.3445C21.7223 28.759 22.7596 31.7905 26.6586 35.4302C31.1747 39.6422 34.7875 40.1967 37.1394 39.6333C38.4719 39.3113 39.5361 38.0146 40.2068 36.9505C40.3151 36.7832 40.3828 36.5929 40.4045 36.3948C40.4262 36.1967 40.4013 35.9963 40.3318 35.8095C40.2624 35.6227 40.1502 35.4548 40.0042 35.319C39.8583 35.1833 39.6827 35.0836 39.4914 35.0278H39.4824Z" fill="white"/>
</g>
<defs>
<clipPath id="clip0_1_20533">
<rect width="61.0515" height="61.0515" fill="white" transform="translate(0.347656 0.804199)"/>
</clipPath>
</defs>
</svg>
